<?xml version="1.0" encoding="UTF-8"?>
<svg xmlns="http://www.w3.org/2000/svg" xmlns:xlink="http://www.w3.org/1999/xlink" width="162pt" height="121pt" viewBox="0 0 162 121" version="1.1">
<g id="surface1191">
<path style="fill:none;stroke-width:2.25;stroke-linecap:round;stroke-linejoin:round;stroke:rgb(52.941176%,80.784314%,92.156863%);stroke-opacity:1;stroke-miterlimit:10;" d="M 6 112.359375 L 7.5 108.082031 L 9 103.886719 L 10.5 99.78125 L 12 95.765625 L 13.5 91.832031 L 15 87.984375 L 16.5 84.226562 L 18 80.550781 L 19.5 76.964844 L 21 73.464844 L 22.5 70.050781 L 24 66.722656 L 25.5 63.484375 L 27 60.328125 L 28.5 57.257812 L 30 54.277344 L 31.5 51.382812 L 33 48.574219 L 34.5 45.851562 L 36 43.214844 L 37.5 40.664062 L 39 38.203125 L 40.5 35.824219 L 42 33.535156 L 43.5 31.332031 L 45 29.214844 L 46.5 27.183594 L 48 25.238281 L 49.5 23.378906 L 51 21.605469 L 52.5 19.921875 L 54 18.324219 L 55.5 16.8125 L 57 15.382812 L 58.5 14.042969 L 60 12.792969 L 61.5 11.625 L 63 10.542969 L 64.5 9.550781 L 66 8.644531 L 67.5 7.820312 L 69 7.085938 L 70.5 6.4375 L 72 5.878906 L 73.5 5.402344 L 75 5.011719 L 76.5 4.710938 L 78 4.496094 L 79.5 4.363281 L 81 4.320312 L 82.5 4.363281 L 84 4.496094 L 85.5 4.710938 L 87 5.011719 L 88.5 5.402344 L 90 5.878906 L 91.5 6.4375 L 93 7.085938 L 94.5 7.820312 L 96 8.644531 L 97.5 9.550781 L 99 10.542969 L 100.5 11.625 L 102 12.792969 L 103.5 14.042969 L 105 15.382812 L 106.5 16.8125 L 108 18.324219 L 109.5 19.921875 L 111 21.605469 L 112.5 23.378906 L 114 25.238281 L 115.5 27.183594 L 117 29.214844 L 118.5 31.332031 L 120 33.535156 L 121.5 35.824219 L 123 38.203125 L 124.5 40.664062 L 126 43.214844 L 127.5 45.851562 L 129 48.574219 L 130.5 51.382812 L 132 54.277344 L 133.5 57.257812 L 135 60.328125 L 136.5 63.484375 L 138 66.722656 L 139.5 70.050781 L 141 73.464844 L 142.5 76.964844 L 144 80.550781 L 145.5 84.226562 L 147 87.984375 L 148.5 91.832031 L 150 95.765625 L 151.5 99.78125 L 153 103.886719 L 154.5 108.082031 L 156 112.359375 "/>
<path style="fill:none;stroke-width:1.5;stroke-linecap:round;stroke-linejoin:round;stroke:rgb(0%,0%,0%);stroke-opacity:1;stroke-miterlimit:10;" d="M 5.992188 119.011719 L 156.007812 119.011719 "/>
</g>
</svg>
