<?xml version="1.0" encoding="UTF-8"?>
<svg xmlns="http://www.w3.org/2000/svg" xmlns:xlink="http://www.w3.org/1999/xlink" width="162pt" height="121pt" viewBox="0 0 162 121" version="1.1">
<g id="surface902">
<path style="fill:none;stroke-width:2.25;stroke-linecap:round;stroke-linejoin:round;stroke:rgb(52.941176%,80.784314%,92.156863%);stroke-opacity:1;stroke-miterlimit:10;" d="M 22.667969 112.359375 L 22.832031 94.636719 L 23 87.417969 L 23.167969 81.964844 L 23.332031 77.4375 L 23.5 73.511719 L 23.667969 70.015625 L 23.832031 66.851562 L 24 63.953125 L 24.167969 61.273438 L 24.332031 58.777344 L 24.5 56.441406 L 24.667969 54.25 L 24.832031 52.175781 L 25 50.214844 L 25.167969 48.355469 L 25.332031 46.585938 L 25.5 44.902344 L 25.667969 43.292969 L 25.832031 41.753906 L 26 40.28125 L 26.167969 38.867188 L 26.332031 37.515625 L 26.5 36.214844 L 26.667969 34.964844 L 26.832031 33.761719 L 27 32.605469 L 27.167969 31.492188 L 27.332031 30.417969 L 27.5 29.382812 L 27.667969 28.386719 L 27.832031 27.421875 L 28 26.496094 L 28.167969 25.597656 L 28.332031 24.734375 L 28.5 23.898438 L 28.667969 23.089844 L 28.832031 22.308594 L 29 21.554688 L 29.167969 20.828125 L 29.332031 20.125 L 29.5 19.445312 L 29.667969 18.789062 L 29.832031 18.152344 L 30 17.539062 L 30.167969 16.945312 L 30.332031 16.371094 L 30.5 15.816406 L 30.667969 15.28125 L 30.832031 14.765625 L 31 14.265625 L 31.167969 13.785156 L 31.332031 13.320312 L 31.5 12.871094 L 31.667969 12.4375 L 31.832031 12.019531 L 32 11.617188 L 32.167969 11.226562 L 32.332031 10.851562 L 32.5 10.492188 L 32.667969 10.144531 L 32.832031 9.8125 L 33 9.488281 L 33.167969 9.179688 L 33.332031 8.882812 L 33.5 8.597656 L 33.667969 8.324219 L 33.832031 8.0625 L 34 7.8125 L 34.167969 7.570312 L 34.332031 7.339844 L 34.5 7.121094 L 34.667969 6.910156 L 34.832031 6.710938 L 35 6.519531 L 35.167969 6.339844 L 35.332031 6.164062 L 35.5 6.003906 L 35.667969 5.847656 L 35.832031 5.703125 L 36 5.566406 L 36.167969 5.433594 L 36.332031 5.3125 L 36.5 5.199219 L 36.667969 5.09375 L 36.832031 4.996094 L 37 4.90625 L 37.167969 4.820312 L 37.332031 4.742188 L 37.667969 4.609375 L 37.832031 4.554688 L 38 4.503906 L 38.167969 4.460938 L 38.332031 4.421875 L 38.5 4.390625 L 38.667969 4.367188 L 38.832031 4.347656 L 39 4.332031 L 39.167969 4.324219 L 39.332031 4.320312 L 39.5 4.324219 L 39.667969 4.332031 L 39.832031 4.34375 L 40 4.363281 L 40.167969 4.386719 L 40.332031 4.414062 L 40.667969 4.484375 L 40.832031 4.527344 L 41 4.574219 L 41.167969 4.625 L 41.332031 4.679688 L 41.667969 4.804688 L 41.832031 4.875 L 42 4.945312 L 42.167969 5.019531 L 42.332031 5.101562 L 42.5 5.183594 L 42.667969 5.273438 L 42.832031 5.363281 L 43 5.457031 L 43.167969 5.554688 L 43.332031 5.65625 L 43.5 5.761719 L 43.667969 5.871094 L 43.832031 5.980469 L 44.167969 6.214844 L 44.332031 6.335938 L 44.667969 6.585938 L 44.832031 6.714844 L 45 6.847656 L 45.167969 6.984375 L 45.332031 7.121094 L 45.5 7.261719 L 45.667969 7.40625 L 45.832031 7.550781 L 46 7.699219 L 46.167969 7.851562 L 46.332031 8.003906 L 46.667969 8.316406 L 46.832031 8.476562 L 47.167969 8.804688 L 47.5 9.136719 L 47.667969 9.308594 L 47.832031 9.480469 L 48.167969 9.832031 L 48.332031 10.011719 L 48.5 10.191406 L 48.667969 10.375 L 48.832031 10.558594 L 49 10.742188 L 49.167969 10.929688 L 49.332031 11.121094 L 49.667969 11.503906 L 49.832031 11.695312 L 50 11.890625 L 50.167969 12.089844 L 50.332031 12.289062 L 50.667969 12.6875 L 50.832031 12.890625 L 51 13.09375 L 51.167969 13.300781 L 51.332031 13.503906 L 51.5 13.710938 L 51.667969 13.921875 L 51.832031 14.132812 L 52.167969 14.554688 L 52.332031 14.769531 L 52.5 14.980469 L 52.667969 15.199219 L 52.832031 15.414062 L 53.167969 15.851562 L 53.332031 16.070312 L 53.5 16.289062 L 53.667969 16.511719 L 53.832031 16.734375 L 54.167969 17.179688 L 54.332031 17.402344 L 54.667969 17.855469 L 54.832031 18.082031 L 55 18.308594 L 55.167969 18.539062 L 55.332031 18.765625 L 55.667969 19.226562 L 55.832031 19.457031 L 56 19.6875 L 56.167969 19.921875 L 56.332031 20.152344 L 56.667969 20.621094 L 56.832031 20.851562 L 57 21.089844 L 57.167969 21.324219 L 57.332031 21.558594 L 57.5 21.792969 L 57.667969 22.03125 L 57.832031 22.269531 L 58 22.503906 L 58.167969 22.742188 L 58.332031 22.980469 L 58.667969 23.457031 L 58.832031 23.695312 L 59 23.933594 L 59.167969 24.175781 L 59.332031 24.414062 L 59.5 24.652344 L 59.667969 24.894531 L 59.832031 25.136719 L 60 25.375 L 60.167969 25.617188 L 60.332031 25.859375 L 60.5 26.097656 L 60.667969 26.339844 L 60.832031 26.582031 L 61.167969 27.066406 L 61.332031 27.308594 L 61.667969 27.792969 L 61.832031 28.035156 L 62.167969 28.519531 L 62.332031 28.761719 L 62.667969 29.246094 L 62.832031 29.488281 L 63.167969 29.972656 L 63.332031 30.214844 L 63.667969 30.699219 L 63.832031 30.941406 L 64.167969 31.425781 L 64.332031 31.667969 L 64.667969 32.152344 L 64.832031 32.394531 L 65.167969 32.878906 L 65.332031 33.117188 L 65.667969 33.601562 L 65.832031 33.84375 L 66 34.082031 L 66.167969 34.324219 L 66.332031 34.566406 L 66.5 34.804688 L 66.667969 35.046875 L 66.832031 35.285156 L 67 35.523438 L 67.167969 35.765625 L 67.332031 36.003906 L 67.5 36.242188 L 67.667969 36.484375 L 67.832031 36.722656 L 68.167969 37.199219 L 68.332031 37.4375 L 68.5 37.675781 L 68.667969 37.910156 L 68.832031 38.148438 L 69 38.386719 L 69.167969 38.621094 L 69.332031 38.859375 L 69.5 39.09375 L 69.667969 39.332031 L 69.832031 39.566406 L 70.167969 40.035156 L 70.332031 40.269531 L 70.667969 40.738281 L 70.832031 40.972656 L 71 41.207031 L 71.167969 41.4375 L 71.332031 41.671875 L 71.5 41.902344 L 71.667969 42.136719 L 71.832031 42.367188 L 72.167969 42.828125 L 72.332031 43.058594 L 72.667969 43.519531 L 72.832031 43.75 L 73 43.976562 L 73.167969 44.207031 L 73.332031 44.433594 L 73.667969 44.886719 L 73.832031 45.117188 L 74 45.34375 L 74.167969 45.566406 L 74.332031 45.792969 L 74.5 46.019531 L 74.667969 46.242188 L 74.832031 46.46875 L 75.167969 46.914062 L 75.332031 47.140625 L 75.5 47.363281 L 75.667969 47.582031 L 75.832031 47.804688 L 76 48.027344 L 76.167969 48.246094 L 76.332031 48.46875 L 76.667969 48.90625 L 76.832031 49.128906 L 77 49.347656 L 77.167969 49.5625 L 77.332031 49.78125 L 77.5 50 L 77.667969 50.214844 L 77.832031 50.433594 L 78.167969 50.863281 L 78.332031 51.078125 L 78.667969 51.507812 L 78.832031 51.71875 L 79 51.933594 L 79.167969 52.144531 L 79.332031 52.359375 L 79.667969 52.78125 L 79.832031 52.992188 L 80 53.199219 L 80.167969 53.410156 L 80.332031 53.621094 L 80.667969 54.035156 L 80.832031 54.242188 L 81.167969 54.65625 L 81.332031 54.863281 L 81.5 55.070312 L 81.667969 55.273438 L 81.832031 55.476562 L 82 55.683594 L 82.167969 55.886719 L 82.332031 56.089844 L 82.5 56.292969 L 82.667969 56.492188 L 82.832031 56.695312 L 83 56.894531 L 83.167969 57.097656 L 83.332031 57.296875 L 83.667969 57.695312 L 83.832031 57.894531 L 84 58.089844 L 84.167969 58.289062 L 84.332031 58.484375 L 84.5 58.679688 L 84.667969 58.878906 L 84.832031 59.074219 L 85 59.265625 L 85.167969 59.460938 L 85.332031 59.65625 L 85.667969 60.039062 L 85.832031 60.234375 L 86.167969 60.617188 L 86.332031 60.804688 L 86.667969 61.1875 L 86.832031 61.375 L 87.167969 61.75 L 87.332031 61.9375 L 87.667969 62.3125 L 87.832031 62.496094 L 88 62.683594 L 88.167969 62.867188 L 88.332031 63.050781 L 88.667969 63.417969 L 88.832031 63.601562 L 89 63.785156 L 89.167969 63.964844 L 89.332031 64.144531 L 89.5 64.328125 L 89.667969 64.507812 L 89.832031 64.6875 L 90 64.863281 L 90.167969 65.042969 L 90.332031 65.222656 L 90.667969 65.574219 L 90.832031 65.75 L 91.167969 66.101562 L 91.332031 66.277344 L 91.5 66.453125 L 91.667969 66.625 L 91.832031 66.796875 L 92 66.972656 L 92.167969 67.144531 L 92.332031 67.316406 L 92.5 67.484375 L 92.667969 67.65625 L 92.832031 67.828125 L 93.167969 68.164062 L 93.332031 68.332031 L 93.667969 68.667969 L 93.832031 68.835938 L 94 69.003906 L 94.167969 69.167969 L 94.5 69.5 L 94.667969 69.664062 L 94.832031 69.828125 L 95 69.988281 L 95.167969 70.152344 L 95.332031 70.316406 L 95.667969 70.636719 L 95.832031 70.796875 L 96.167969 71.117188 L 96.332031 71.277344 L 96.5 71.4375 L 96.667969 71.59375 L 96.832031 71.753906 L 97.167969 72.066406 L 97.332031 72.222656 L 97.5 72.378906 L 97.667969 72.53125 L 97.832031 72.6875 L 98 72.839844 L 98.167969 72.996094 L 98.332031 73.148438 L 98.667969 73.453125 L 98.832031 73.605469 L 99 73.753906 L 99.167969 73.90625 L 99.332031 74.054688 L 99.5 74.207031 L 99.667969 74.355469 L 99.832031 74.503906 L 100.167969 74.800781 L 100.332031 74.945312 L 100.5 75.09375 L 100.667969 75.238281 L 100.832031 75.386719 L 101.167969 75.675781 L 101.332031 75.820312 L 101.5 75.964844 L 101.667969 76.105469 L 101.832031 76.25 L 102 76.390625 L 102.167969 76.535156 L 102.332031 76.675781 L 102.667969 76.957031 L 102.832031 77.097656 L 103 77.234375 L 103.167969 77.375 L 103.332031 77.511719 L 103.5 77.652344 L 103.667969 77.789062 L 103.832031 77.925781 L 104.167969 78.199219 L 104.332031 78.332031 L 104.667969 78.605469 L 104.832031 78.738281 L 105.167969 79.003906 L 105.332031 79.136719 L 105.667969 79.402344 L 105.832031 79.535156 L 106 79.664062 L 106.167969 79.796875 L 106.332031 79.925781 L 106.667969 80.183594 L 106.832031 80.3125 L 107.167969 80.570312 L 107.332031 80.695312 L 107.5 80.824219 L 107.667969 80.949219 L 107.832031 81.074219 L 108 81.199219 L 108.167969 81.328125 L 108.332031 81.449219 L 108.667969 81.699219 L 108.832031 81.824219 L 109.167969 82.066406 L 109.332031 82.191406 L 109.667969 82.433594 L 109.832031 82.554688 L 110 82.671875 L 110.167969 82.792969 L 110.332031 82.914062 L 110.5 83.03125 L 110.667969 83.152344 L 110.832031 83.269531 L 111.167969 83.503906 L 111.332031 83.621094 L 111.5 83.738281 L 111.667969 83.851562 L 111.832031 83.96875 L 112 84.085938 L 112.167969 84.199219 L 112.332031 84.3125 L 112.667969 84.539062 L 112.832031 84.652344 L 113.167969 84.878906 L 113.332031 84.992188 L 113.5 85.101562 L 113.667969 85.214844 L 113.832031 85.324219 L 114.167969 85.542969 L 114.332031 85.652344 L 114.667969 85.871094 L 114.832031 85.980469 L 115 86.085938 L 115.167969 86.195312 L 115.332031 86.300781 L 115.5 86.410156 L 115.667969 86.515625 L 115.832031 86.621094 L 116.167969 86.832031 L 116.332031 86.9375 L 116.5 87.039062 L 116.667969 87.144531 L 116.832031 87.246094 L 117 87.351562 L 117.167969 87.453125 L 117.332031 87.554688 L 117.667969 87.757812 L 117.832031 87.859375 L 118.167969 88.0625 L 118.332031 88.164062 L 118.667969 88.359375 L 118.832031 88.460938 L 119.167969 88.65625 L 119.332031 88.753906 L 119.667969 88.949219 L 119.832031 89.046875 L 120 89.140625 L 120.167969 89.238281 L 120.332031 89.335938 L 120.667969 89.523438 L 120.832031 89.617188 L 121 89.714844 L 121.167969 89.808594 L 121.332031 89.902344 L 121.5 89.992188 L 121.667969 90.085938 L 121.832031 90.179688 L 122 90.269531 L 122.167969 90.363281 L 122.332031 90.453125 L 122.5 90.546875 L 122.667969 90.636719 L 122.832031 90.726562 L 123.167969 90.90625 L 123.332031 90.996094 L 123.5 91.085938 L 123.667969 91.171875 L 123.832031 91.261719 L 124 91.347656 L 124.167969 91.4375 L 124.332031 91.523438 L 124.5 91.609375 L 124.667969 91.699219 L 124.832031 91.785156 L 125.167969 91.957031 L 125.332031 92.039062 L 125.667969 92.210938 L 125.832031 92.292969 L 126 92.378906 L 126.167969 92.460938 L 126.332031 92.546875 L 126.667969 92.710938 L 126.832031 92.792969 L 127.167969 92.957031 L 127.332031 93.039062 L 127.5 93.121094 L 127.667969 93.199219 L 127.832031 93.28125 L 128 93.359375 L 128.167969 93.441406 L 128.332031 93.519531 L 128.5 93.597656 L 128.667969 93.679688 L 128.832031 93.757812 L 129.167969 93.914062 L 129.332031 93.992188 L 129.5 94.066406 L 129.667969 94.144531 L 129.832031 94.222656 L 130 94.296875 L 130.167969 94.375 L 130.332031 94.449219 L 130.5 94.523438 L 130.667969 94.601562 L 130.832031 94.675781 L 131.167969 94.824219 L 131.332031 94.898438 L 131.667969 95.046875 L 131.832031 95.117188 L 132.167969 95.265625 L 132.332031 95.335938 L 132.5 95.410156 L 132.667969 95.480469 L 132.832031 95.550781 L 133 95.625 L 133.167969 95.695312 L 133.332031 95.765625 L 133.667969 95.90625 L 133.832031 95.976562 L 134 96.042969 L 134.167969 96.113281 L 134.332031 96.183594 L 134.5 96.25 L 134.667969 96.320312 L 134.832031 96.386719 L 135 96.457031 L 135.167969 96.523438 L 135.332031 96.589844 L 135.667969 96.722656 L 135.832031 96.789062 L 136.167969 96.921875 L 136.332031 96.988281 L 136.667969 97.121094 L 136.832031 97.183594 L 137 97.25 L 137.167969 97.3125 L 137.332031 97.378906 L 137.667969 97.503906 L 137.832031 97.570312 L 138.167969 97.695312 L 138.332031 97.757812 L 138.667969 97.882812 L 138.832031 97.941406 L 139.167969 98.066406 L 139.332031 98.128906 L 139.5 98.1875 L 139.667969 98.25 L 139.832031 98.308594 L 140 98.371094 L 140.167969 98.429688 L 140.332031 98.488281 L 140.5 98.546875 L 140.667969 98.609375 L 140.832031 98.667969 L 141.167969 98.785156 L 141.332031 98.839844 L 141.667969 98.957031 L 141.832031 99.015625 L 142 99.074219 L 142.167969 99.128906 L 142.332031 99.1875 L 142.5 99.242188 L 142.667969 99.300781 L 142.832031 99.355469 L 143.167969 99.464844 L 143.332031 99.523438 L 143.667969 99.632812 L 143.832031 99.6875 L 144.167969 99.796875 L 144.332031 99.851562 L 144.5 99.902344 L 144.667969 99.957031 L 144.832031 100.011719 L 145 100.0625 L 145.167969 100.117188 L 145.332031 100.167969 L 145.5 100.222656 L 145.667969 100.273438 L 145.832031 100.328125 L 146.167969 100.429688 L 146.332031 100.480469 L 146.5 100.535156 L 146.667969 100.585938 L 146.832031 100.636719 L 147 100.6875 L 147.167969 100.734375 L 147.332031 100.785156 L 147.667969 100.886719 L 147.832031 100.9375 L 148 100.984375 L 148.167969 101.035156 L 148.332031 101.082031 L 148.5 101.132812 L 148.667969 101.179688 L 148.832031 101.230469 L 149.167969 101.324219 L 149.332031 101.375 L 149.667969 101.46875 L 149.832031 101.515625 L 150.167969 101.609375 L 150.332031 101.65625 L 150.667969 101.75 L 150.832031 101.792969 L 151.167969 101.886719 L 151.332031 101.933594 L 151.5 101.976562 L 151.667969 102.023438 L 151.832031 102.066406 L 152 102.113281 L 152.167969 102.15625 L 152.332031 102.199219 L 152.5 102.246094 L 152.667969 102.289062 L 152.832031 102.332031 L 153.167969 102.417969 L 153.332031 102.460938 L 153.5 102.507812 L 153.667969 102.550781 L 153.832031 102.589844 L 154.167969 102.675781 L 154.332031 102.71875 L 154.5 102.761719 L 154.667969 102.800781 L 154.832031 102.84375 L 155 102.886719 L 155.167969 102.925781 L 155.332031 102.96875 L 155.5 103.007812 L 155.667969 103.050781 L 155.832031 103.089844 L 156 103.132812 "/>
<path style="fill:none;stroke-width:1.5;stroke-linecap:round;stroke-linejoin:round;stroke:rgb(0%,0%,0%);stroke-opacity:1;stroke-miterlimit:10;" d="M 5.992188 119.011719 L 156.007812 119.011719 "/>
</g>
</svg>
