<?xml version="1.0" encoding="UTF-8"?>
<svg xmlns="http://www.w3.org/2000/svg" xmlns:xlink="http://www.w3.org/1999/xlink" width="162pt" height="121pt" viewBox="0 0 162 121" version="1.1">
<g id="surface1241">
<path style="fill:none;stroke-width:2.25;stroke-linecap:round;stroke-linejoin:round;stroke:rgb(52.941176%,80.784314%,92.156863%);stroke-opacity:1;stroke-miterlimit:10;" d="M 6 106.980469 L 7 106.761719 L 7.25 106.703125 L 7.5 106.648438 L 8.75 106.355469 L 9 106.292969 L 9.25 106.234375 L 10.25 105.984375 L 10.5 105.917969 L 10.75 105.855469 L 11.75 105.589844 L 12 105.519531 L 12.25 105.453125 L 13.25 105.171875 L 14.75 104.726562 L 16 104.335938 L 17 104.007812 L 17.25 103.921875 L 17.5 103.839844 L 17.75 103.753906 L 18 103.664062 L 18.5 103.492188 L 19 103.3125 L 19.25 103.21875 L 19.5 103.128906 L 20.25 102.847656 L 20.5 102.75 L 20.75 102.65625 L 21.25 102.460938 L 22.5 101.953125 L 23 101.742188 L 23.25 101.632812 L 23.5 101.527344 L 24 101.308594 L 24.25 101.195312 L 24.5 101.085938 L 24.75 100.972656 L 25 100.855469 L 25.25 100.742188 L 25.75 100.507812 L 26.75 100.023438 L 27.5 99.648438 L 28.25 99.261719 L 29 98.863281 L 29.5 98.589844 L 29.75 98.449219 L 30 98.3125 L 30.25 98.167969 L 30.5 98.027344 L 31 97.738281 L 31.75 97.292969 L 32.25 96.988281 L 33 96.519531 L 33.75 96.039062 L 34 95.875 L 34.75 95.371094 L 35.5 94.855469 L 35.75 94.679688 L 36.5 94.140625 L 36.75 93.957031 L 37 93.769531 L 37.25 93.585938 L 37.5 93.394531 L 37.75 93.207031 L 38.5 92.621094 L 39 92.222656 L 39.5 91.816406 L 40 91.402344 L 40.25 91.191406 L 41 90.546875 L 41.25 90.328125 L 41.75 89.882812 L 42.25 89.429688 L 42.5 89.199219 L 43 88.730469 L 43.5 88.253906 L 43.75 88.011719 L 44.25 87.519531 L 44.5 87.269531 L 45 86.761719 L 45.5 86.246094 L 45.75 85.980469 L 46 85.71875 L 46.5 85.179688 L 46.75 84.90625 L 47.25 84.351562 L 47.5 84.070312 L 47.75 83.785156 L 48.25 83.207031 L 48.5 82.914062 L 49 82.320312 L 49.25 82.019531 L 49.5 81.714844 L 49.75 81.40625 L 50.25 80.78125 L 51 79.820312 L 51.25 79.492188 L 51.75 78.828125 L 52 78.492188 L 52.5 77.804688 L 53 77.109375 L 53.25 76.753906 L 53.75 76.035156 L 54.25 75.300781 L 54.5 74.929688 L 55 74.171875 L 55.25 73.789062 L 55.5 73.402344 L 56 72.613281 L 56.25 72.214844 L 56.5 71.8125 L 57 70.992188 L 57.5 70.15625 L 58 69.304688 L 58.25 68.871094 L 58.5 68.433594 L 58.75 67.992188 L 59 67.546875 L 59.25 67.097656 L 59.75 66.183594 L 60 65.71875 L 60.25 65.25 L 60.5 64.777344 L 60.75 64.296875 L 61.25 63.328125 L 61.75 62.335938 L 62 61.832031 L 62.25 61.324219 L 62.5 60.8125 L 62.75 60.292969 L 63 59.769531 L 63.25 59.242188 L 63.5 58.707031 L 63.75 58.167969 L 64 57.625 L 64.25 57.074219 L 64.5 56.519531 L 64.75 55.957031 L 65 55.390625 L 65.25 54.820312 L 65.5 54.242188 L 65.75 53.65625 L 66 53.066406 L 66.25 52.46875 L 66.5 51.867188 L 66.75 51.261719 L 67 50.648438 L 67.25 50.027344 L 67.5 49.398438 L 67.75 48.765625 L 68 48.128906 L 68.25 47.484375 L 68.5 46.832031 L 68.75 46.171875 L 69 45.507812 L 69.25 44.835938 L 69.5 44.15625 L 69.75 43.472656 L 70 42.777344 L 70.25 42.078125 L 70.5 41.375 L 70.75 40.660156 L 71 39.9375 L 71.25 39.210938 L 71.5 38.476562 L 71.75 37.734375 L 72 36.984375 L 72.25 36.226562 L 72.5 35.460938 L 72.75 34.6875 L 73 33.90625 L 73.25 33.117188 L 73.5 32.324219 L 73.75 31.519531 L 74 30.707031 L 74.25 29.886719 L 74.5 29.054688 L 74.75 28.21875 L 75 27.375 L 75.25 26.519531 L 75.5 25.65625 L 75.75 24.785156 L 76 23.90625 L 76.25 23.015625 L 76.5 22.117188 L 76.75 21.210938 L 77 20.296875 L 77.25 19.371094 L 77.5 18.4375 L 77.75 17.492188 L 78 16.539062 L 78.25 15.574219 L 78.5 14.601562 L 78.75 13.621094 L 79 12.628906 L 79.25 11.625 L 79.5 10.613281 L 79.75 9.589844 L 80 8.558594 L 80.25 7.515625 L 80.5 6.460938 L 80.75 5.394531 L 81 4.320312 L 81.25 5.394531 L 81.5 6.460938 L 81.75 7.515625 L 82 8.558594 L 82.25 9.589844 L 82.5 10.613281 L 82.75 11.625 L 83 12.628906 L 83.25 13.621094 L 83.5 14.601562 L 83.75 15.574219 L 84 16.539062 L 84.25 17.492188 L 84.5 18.4375 L 84.75 19.371094 L 85 20.296875 L 85.25 21.210938 L 85.5 22.117188 L 85.75 23.015625 L 86 23.90625 L 86.25 24.785156 L 86.5 25.65625 L 86.75 26.519531 L 87 27.375 L 87.25 28.21875 L 87.5 29.054688 L 87.75 29.886719 L 88 30.707031 L 88.25 31.519531 L 88.5 32.324219 L 88.75 33.117188 L 89 33.90625 L 89.25 34.6875 L 89.5 35.460938 L 89.75 36.226562 L 90 36.984375 L 90.25 37.734375 L 90.5 38.476562 L 90.75 39.210938 L 91 39.9375 L 91.25 40.660156 L 91.5 41.375 L 91.75 42.078125 L 92 42.777344 L 92.25 43.472656 L 92.5 44.15625 L 92.75 44.835938 L 93 45.507812 L 93.25 46.171875 L 93.5 46.832031 L 93.75 47.484375 L 94 48.128906 L 94.25 48.765625 L 94.5 49.398438 L 94.75 50.027344 L 95 50.648438 L 95.25 51.261719 L 95.5 51.867188 L 95.75 52.46875 L 96 53.066406 L 96.25 53.65625 L 96.5 54.242188 L 96.75 54.820312 L 97 55.390625 L 97.25 55.957031 L 97.5 56.519531 L 97.75 57.074219 L 98 57.625 L 98.25 58.167969 L 98.5 58.707031 L 98.75 59.242188 L 99 59.769531 L 99.25 60.292969 L 99.5 60.8125 L 99.75 61.324219 L 100 61.832031 L 100.25 62.335938 L 100.75 63.328125 L 101.25 64.296875 L 101.5 64.777344 L 101.75 65.25 L 102 65.71875 L 102.25 66.183594 L 102.75 67.097656 L 103 67.546875 L 103.25 67.992188 L 103.5 68.433594 L 103.75 68.871094 L 104 69.304688 L 104.5 70.15625 L 105 70.992188 L 105.5 71.8125 L 105.75 72.214844 L 106 72.613281 L 106.5 73.402344 L 106.75 73.789062 L 107 74.171875 L 107.5 74.929688 L 107.75 75.300781 L 108.25 76.035156 L 108.75 76.753906 L 109 77.109375 L 109.5 77.804688 L 110 78.492188 L 110.25 78.828125 L 110.75 79.492188 L 111 79.820312 L 111.75 80.78125 L 112.25 81.40625 L 112.5 81.714844 L 112.75 82.019531 L 113 82.320312 L 113.5 82.914062 L 113.75 83.207031 L 114.25 83.785156 L 114.5 84.070312 L 114.75 84.351562 L 115.25 84.90625 L 115.5 85.179688 L 116 85.71875 L 116.25 85.980469 L 116.5 86.246094 L 117 86.761719 L 117.5 87.269531 L 117.75 87.519531 L 118.25 88.011719 L 118.5 88.253906 L 119 88.730469 L 119.5 89.199219 L 119.75 89.429688 L 120.25 89.882812 L 120.75 90.328125 L 121 90.546875 L 121.75 91.191406 L 122 91.402344 L 122.5 91.816406 L 123 92.222656 L 123.5 92.621094 L 124.25 93.207031 L 124.5 93.394531 L 124.75 93.585938 L 125 93.769531 L 125.25 93.957031 L 125.5 94.140625 L 126.25 94.679688 L 126.5 94.855469 L 127.25 95.371094 L 128 95.875 L 128.25 96.039062 L 129 96.519531 L 129.75 96.988281 L 130.25 97.292969 L 131 97.738281 L 131.5 98.027344 L 131.75 98.167969 L 132 98.3125 L 132.25 98.449219 L 132.5 98.589844 L 133 98.863281 L 133.75 99.261719 L 134.5 99.648438 L 135.25 100.023438 L 136.25 100.507812 L 136.75 100.742188 L 137 100.855469 L 137.25 100.972656 L 137.5 101.085938 L 137.75 101.195312 L 138 101.308594 L 138.5 101.527344 L 138.75 101.632812 L 139 101.742188 L 139.5 101.953125 L 140.75 102.460938 L 141.25 102.65625 L 141.5 102.75 L 141.75 102.847656 L 142.5 103.128906 L 142.75 103.21875 L 143 103.3125 L 143.5 103.492188 L 144 103.664062 L 144.25 103.753906 L 144.5 103.839844 L 144.75 103.921875 L 145 104.007812 L 146 104.335938 L 147.25 104.726562 L 148.75 105.171875 L 149.75 105.453125 L 150 105.519531 L 150.25 105.589844 L 151.25 105.855469 L 151.5 105.917969 L 151.75 105.984375 L 152.75 106.234375 L 153 106.292969 L 153.25 106.355469 L 154.5 106.648438 L 154.75 106.703125 L 155 106.761719 L 156 106.980469 "/>
<path style="fill:none;stroke-width:1.5;stroke-linecap:round;stroke-linejoin:round;stroke:rgb(0%,0%,0%);stroke-opacity:1;stroke-miterlimit:10;" d="M 5.992188 119.011719 L 156.007812 119.011719 "/>
</g>
</svg>
