<?xml version="1.0" encoding="UTF-8"?>
<svg xmlns="http://www.w3.org/2000/svg" xmlns:xlink="http://www.w3.org/1999/xlink" width="162pt" height="121pt" viewBox="0 0 162 121" version="1.1">
<g id="surface1246">
<path style="fill:none;stroke-width:2.25;stroke-linecap:round;stroke-linejoin:round;stroke:rgb(52.941176%,80.784314%,92.156863%);stroke-opacity:1;stroke-miterlimit:10;" d="M 6 15.125 L 7.070312 16.574219 L 8.144531 18 L 9.214844 19.402344 L 10.285156 20.789062 L 11.355469 22.152344 L 12.429688 23.492188 L 13.5 24.816406 L 14.570312 26.121094 L 15.644531 27.402344 L 16.714844 28.667969 L 17.785156 29.914062 L 18.855469 31.140625 L 19.929688 32.351562 L 21 33.542969 L 22.070312 34.714844 L 23.144531 35.871094 L 24.214844 37.011719 L 25.285156 38.132812 L 26.355469 39.238281 L 27.429688 40.328125 L 28.5 41.398438 L 29.570312 42.457031 L 30.644531 43.496094 L 31.714844 44.519531 L 32.785156 45.53125 L 33.855469 46.527344 L 34.929688 47.507812 L 36 48.472656 L 37.070312 49.421875 L 38.144531 50.359375 L 39.214844 51.28125 L 40.285156 52.191406 L 41.355469 53.089844 L 42.429688 53.96875 L 43.5 54.839844 L 44.570312 55.695312 L 45.644531 56.539062 L 46.714844 57.371094 L 47.785156 58.1875 L 48.855469 58.996094 L 49.929688 59.789062 L 51 60.574219 L 52.070312 61.34375 L 53.144531 62.101562 L 54.214844 62.851562 L 55.285156 63.589844 L 56.355469 64.316406 L 57.429688 65.03125 L 58.5 65.734375 L 59.570312 66.429688 L 60.644531 67.113281 L 61.714844 67.785156 L 62.785156 68.449219 L 63.855469 69.101562 L 64.929688 69.746094 L 66 70.382812 L 67.070312 71.007812 L 68.144531 71.621094 L 69.214844 72.230469 L 70.285156 72.828125 L 71.355469 73.414062 L 72.429688 73.996094 L 73.5 74.566406 L 74.570312 75.128906 L 75.644531 75.683594 L 76.714844 76.230469 L 77.785156 76.765625 L 78.855469 77.296875 L 79.929688 77.820312 L 81 78.332031 L 82.070312 78.839844 L 83.144531 79.339844 L 84.214844 79.832031 L 86.355469 80.792969 L 87.429688 81.261719 L 88.5 81.722656 L 89.570312 82.179688 L 90.644531 82.628906 L 91.714844 83.074219 L 92.785156 83.507812 L 93.855469 83.9375 L 94.929688 84.359375 L 96 84.777344 L 97.070312 85.1875 L 98.144531 85.59375 L 99.214844 85.992188 L 100.285156 86.382812 L 101.355469 86.769531 L 102.429688 87.152344 L 103.5 87.527344 L 104.570312 87.898438 L 105.644531 88.261719 L 106.714844 88.621094 L 107.785156 88.972656 L 108.855469 89.320312 L 109.929688 89.664062 L 111 90.003906 L 112.070312 90.335938 L 113.144531 90.664062 L 115.285156 91.304688 L 116.355469 91.617188 L 117.429688 91.925781 L 118.5 92.230469 L 119.570312 92.53125 L 120.644531 92.824219 L 121.714844 93.117188 L 122.785156 93.402344 L 123.855469 93.683594 L 124.929688 93.960938 L 126 94.238281 L 127.070312 94.507812 L 128.144531 94.773438 L 129.214844 95.035156 L 130.285156 95.292969 L 131.355469 95.546875 L 132.429688 95.796875 L 133.5 96.042969 L 134.570312 96.285156 L 135.644531 96.523438 L 136.714844 96.761719 L 138.855469 97.222656 L 139.929688 97.449219 L 142.070312 97.886719 L 143.144531 98.101562 L 144.214844 98.316406 L 146.355469 98.730469 L 147.429688 98.933594 L 149.570312 99.332031 L 150.644531 99.523438 L 151.714844 99.714844 L 153.855469 100.089844 L 154.929688 100.273438 L 156 100.453125 "/>
<path style="fill:none;stroke-width:1.5;stroke-linecap:round;stroke-linejoin:round;stroke:rgb(0%,0%,0%);stroke-opacity:1;stroke-miterlimit:10;" d="M 5.992188 119.011719 L 156.007812 119.011719 "/>
</g>
</svg>
