<?xml version="1.0" encoding="UTF-8"?>
<svg xmlns="http://www.w3.org/2000/svg" xmlns:xlink="http://www.w3.org/1999/xlink" width="162pt" height="121pt" viewBox="0 0 162 121" version="1.1">
<g id="surface1251">
<path style="fill:none;stroke-width:2.25;stroke-linecap:round;stroke-linejoin:round;stroke:rgb(52.941176%,80.784314%,92.156863%);stroke-opacity:1;stroke-miterlimit:10;" d="M 6 112.359375 L 6.300781 110.179688 L 6.601562 106.488281 L 6.898438 102.089844 L 7.199219 97.292969 L 7.5 92.289062 L 7.800781 87.195312 L 8.101562 82.105469 L 8.398438 77.074219 L 8.699219 72.152344 L 9 67.371094 L 9.300781 62.753906 L 9.601562 58.316406 L 9.898438 54.070312 L 10.199219 50.027344 L 10.5 46.183594 L 10.800781 42.542969 L 11.101562 39.109375 L 11.398438 35.878906 L 11.699219 32.84375 L 12 30.003906 L 12.300781 27.351562 L 12.601562 24.882812 L 12.898438 22.589844 L 13.199219 20.46875 L 13.5 18.515625 L 13.800781 16.714844 L 14.101562 15.066406 L 14.398438 13.5625 L 14.699219 12.199219 L 15 10.964844 L 15.300781 9.855469 L 15.601562 8.867188 L 15.898438 7.992188 L 16.199219 7.222656 L 16.5 6.558594 L 16.800781 5.992188 L 17.101562 5.515625 L 17.398438 5.125 L 17.699219 4.816406 L 18 4.589844 L 18.300781 4.429688 L 18.601562 4.34375 L 18.898438 4.320312 L 19.199219 4.359375 L 19.5 4.457031 L 19.800781 4.605469 L 20.101562 4.808594 L 20.398438 5.058594 L 20.699219 5.351562 L 21 5.6875 L 21.300781 6.0625 L 21.601562 6.472656 L 21.898438 6.917969 L 22.199219 7.394531 L 22.5 7.902344 L 22.800781 8.4375 L 23.101562 8.996094 L 23.398438 9.578125 L 23.699219 10.183594 L 24 10.808594 L 24.300781 11.453125 L 24.601562 12.113281 L 24.898438 12.789062 L 25.199219 13.480469 L 25.5 14.183594 L 25.800781 14.898438 L 26.101562 15.625 L 26.398438 16.359375 L 26.699219 17.101562 L 27 17.855469 L 27.300781 18.613281 L 27.601562 19.375 L 27.898438 20.144531 L 28.199219 20.914062 L 28.800781 22.46875 L 29.101562 23.25 L 29.398438 24.03125 L 29.699219 24.816406 L 30 25.597656 L 30.300781 26.382812 L 30.601562 27.164062 L 30.898438 27.945312 L 31.199219 28.726562 L 31.800781 30.28125 L 32.101562 31.054688 L 32.398438 31.824219 L 33 33.355469 L 33.300781 34.117188 L 33.601562 34.871094 L 33.898438 35.625 L 34.5 37.117188 L 34.800781 37.855469 L 35.101562 38.589844 L 35.398438 39.316406 L 35.699219 40.042969 L 36 40.761719 L 36.601562 42.183594 L 36.898438 42.882812 L 37.199219 43.582031 L 37.800781 44.957031 L 38.101562 45.636719 L 38.398438 46.308594 L 38.699219 46.976562 L 39 47.636719 L 39.300781 48.292969 L 39.601562 48.941406 L 39.898438 49.585938 L 40.199219 50.222656 L 40.5 50.855469 L 40.800781 51.480469 L 41.101562 52.097656 L 41.398438 52.710938 L 41.699219 53.316406 L 42 53.917969 L 42.300781 54.511719 L 42.601562 55.101562 L 42.898438 55.683594 L 43.199219 56.261719 L 43.5 56.832031 L 43.800781 57.394531 L 44.101562 57.953125 L 44.398438 58.507812 L 44.699219 59.054688 L 45 59.597656 L 45.300781 60.132812 L 45.601562 60.660156 L 45.898438 61.183594 L 46.199219 61.703125 L 46.5 62.214844 L 46.800781 62.722656 L 47.101562 63.222656 L 47.398438 63.71875 L 47.699219 64.210938 L 48 64.695312 L 48.300781 65.175781 L 48.601562 65.648438 L 48.898438 66.117188 L 49.199219 66.582031 L 49.5 67.039062 L 49.800781 67.492188 L 50.101562 67.941406 L 50.398438 68.386719 L 50.699219 68.824219 L 51 69.257812 L 51.300781 69.6875 L 51.601562 70.109375 L 51.898438 70.527344 L 52.199219 70.941406 L 52.5 71.351562 L 52.800781 71.757812 L 53.101562 72.15625 L 53.398438 72.554688 L 53.699219 72.945312 L 54 73.332031 L 54.300781 73.714844 L 54.601562 74.09375 L 54.898438 74.464844 L 55.199219 74.835938 L 55.800781 75.5625 L 56.101562 75.917969 L 56.398438 76.273438 L 56.699219 76.621094 L 57.300781 77.308594 L 57.601562 77.644531 L 57.898438 77.976562 L 58.199219 78.308594 L 58.800781 78.957031 L 59.101562 79.273438 L 59.398438 79.589844 L 59.699219 79.902344 L 60 80.210938 L 60.300781 80.515625 L 60.898438 81.113281 L 61.5 81.699219 L 62.101562 82.269531 L 62.398438 82.550781 L 63 83.105469 L 63.601562 83.644531 L 63.898438 83.910156 L 64.5 84.433594 L 64.800781 84.691406 L 65.101562 84.945312 L 65.398438 85.195312 L 65.699219 85.445312 L 66 85.691406 L 66.601562 86.175781 L 66.898438 86.410156 L 67.199219 86.648438 L 67.800781 87.109375 L 68.101562 87.335938 L 68.398438 87.5625 L 68.699219 87.785156 L 69.300781 88.222656 L 69.601562 88.4375 L 69.898438 88.648438 L 70.5 89.070312 L 70.800781 89.273438 L 71.101562 89.480469 L 71.398438 89.679688 L 72 90.078125 L 72.300781 90.273438 L 72.601562 90.464844 L 72.898438 90.65625 L 73.199219 90.847656 L 73.5 91.03125 L 73.800781 91.21875 L 74.101562 91.402344 L 74.398438 91.582031 L 74.699219 91.761719 L 75.300781 92.113281 L 75.601562 92.285156 L 75.898438 92.457031 L 76.199219 92.628906 L 76.5 92.796875 L 77.101562 93.125 L 77.398438 93.289062 L 78 93.609375 L 78.601562 93.921875 L 78.898438 94.078125 L 79.5 94.382812 L 80.101562 94.679688 L 80.398438 94.828125 L 81 95.117188 L 81.601562 95.398438 L 81.898438 95.539062 L 82.5 95.8125 L 82.800781 95.945312 L 83.101562 96.082031 L 83.398438 96.210938 L 83.699219 96.34375 L 84.300781 96.601562 L 84.601562 96.726562 L 84.898438 96.855469 L 85.199219 96.980469 L 86.101562 97.34375 L 86.398438 97.464844 L 87.300781 97.816406 L 87.601562 97.929688 L 87.898438 98.042969 L 88.5 98.269531 L 89.101562 98.488281 L 89.398438 98.597656 L 89.699219 98.703125 L 90 98.8125 L 90.300781 98.914062 L 90.601562 99.019531 L 90.898438 99.125 L 91.5 99.328125 L 91.800781 99.425781 L 92.101562 99.527344 L 92.398438 99.625 L 92.699219 99.722656 L 93 99.816406 L 93.300781 99.914062 L 93.601562 100.007812 L 93.898438 100.101562 L 94.199219 100.195312 L 94.5 100.285156 L 94.800781 100.378906 L 95.101562 100.46875 L 95.398438 100.554688 L 96 100.734375 L 96.601562 100.90625 L 96.898438 100.992188 L 97.199219 101.074219 L 97.5 101.160156 L 98.101562 101.324219 L 98.398438 101.40625 L 98.699219 101.484375 L 99 101.566406 L 99.601562 101.722656 L 99.898438 101.800781 L 100.199219 101.875 L 100.5 101.953125 L 101.101562 102.101562 L 101.398438 102.175781 L 102 102.324219 L 102.300781 102.394531 L 102.601562 102.46875 L 102.898438 102.539062 L 103.199219 102.609375 L 103.5 102.675781 L 104.101562 102.816406 L 104.398438 102.882812 L 105.601562 103.148438 L 105.898438 103.210938 L 106.199219 103.277344 L 107.101562 103.464844 L 107.398438 103.527344 L 107.699219 103.589844 L 108 103.648438 L 108.300781 103.710938 L 108.601562 103.769531 L 108.898438 103.828125 L 109.800781 104.003906 L 110.101562 104.058594 L 110.398438 104.117188 L 110.699219 104.171875 L 111 104.230469 L 111.601562 104.339844 L 111.898438 104.394531 L 112.199219 104.445312 L 112.800781 104.554688 L 113.101562 104.605469 L 113.398438 104.65625 L 113.699219 104.710938 L 114.300781 104.8125 L 114.601562 104.859375 L 114.898438 104.910156 L 115.199219 104.960938 L 115.5 105.007812 L 115.800781 105.058594 L 116.101562 105.105469 L 116.398438 105.152344 L 116.699219 105.203125 L 117.300781 105.296875 L 117.601562 105.339844 L 117.898438 105.386719 L 118.199219 105.433594 L 118.5 105.476562 L 118.800781 105.523438 L 119.101562 105.566406 L 119.398438 105.609375 L 119.699219 105.65625 L 120.601562 105.785156 L 120.898438 105.824219 L 121.5 105.910156 L 121.800781 105.949219 L 122.101562 105.992188 L 122.398438 106.03125 L 122.699219 106.070312 L 123 106.113281 L 123.601562 106.191406 L 123.898438 106.230469 L 124.199219 106.269531 L 124.5 106.304688 L 125.101562 106.382812 L 125.398438 106.417969 L 125.699219 106.457031 L 126 106.492188 L 126.300781 106.53125 L 126.601562 106.566406 L 126.898438 106.601562 L 128.101562 106.742188 L 128.398438 106.777344 L 128.699219 106.8125 L 129 106.84375 L 129.601562 106.914062 L 129.898438 106.945312 L 130.199219 106.980469 L 130.800781 107.042969 L 131.101562 107.078125 L 131.398438 107.109375 L 132.601562 107.234375 L 132.898438 107.265625 L 133.199219 107.296875 L 133.5 107.324219 L 134.101562 107.386719 L 134.398438 107.414062 L 134.699219 107.445312 L 135 107.472656 L 135.300781 107.503906 L 135.601562 107.53125 L 135.898438 107.558594 L 136.199219 107.585938 L 136.5 107.617188 L 137.101562 107.671875 L 137.398438 107.699219 L 138.601562 107.808594 L 138.898438 107.832031 L 139.5 107.886719 L 139.800781 107.910156 L 140.101562 107.9375 L 140.398438 107.960938 L 140.699219 107.988281 L 141 108.011719 L 141.300781 108.039062 L 141.601562 108.0625 L 141.898438 108.085938 L 142.199219 108.113281 L 143.101562 108.183594 L 143.398438 108.207031 L 144.601562 108.300781 L 144.898438 108.324219 L 145.199219 108.347656 L 145.5 108.367188 L 146.101562 108.414062 L 146.398438 108.433594 L 147 108.480469 L 147.300781 108.5 L 147.601562 108.523438 L 147.898438 108.542969 L 148.199219 108.5625 L 148.5 108.585938 L 149.101562 108.625 L 149.398438 108.648438 L 150.601562 108.726562 L 150.898438 108.746094 L 152.101562 108.824219 L 152.398438 108.84375 L 153.300781 108.902344 L 153.601562 108.917969 L 153.898438 108.9375 L 154.5 108.976562 L 154.800781 108.992188 L 155.101562 109.011719 L 155.398438 109.027344 L 155.699219 109.046875 L 156 109.0625 "/>
<path style="fill:none;stroke-width:1.5;stroke-linecap:round;stroke-linejoin:round;stroke:rgb(0%,0%,0%);stroke-opacity:1;stroke-miterlimit:10;" d="M 5.992188 119.011719 L 156.007812 119.011719 "/>
</g>
</svg>
