<?xml version="1.0" encoding="UTF-8"?>
<svg xmlns="http://www.w3.org/2000/svg" xmlns:xlink="http://www.w3.org/1999/xlink" width="162pt" height="121pt" viewBox="0 0 162 121" version="1.1">
<g id="surface1226">
<path style="fill:none;stroke-width:2.25;stroke-linecap:round;stroke-linejoin:round;stroke:rgb(52.941176%,80.784314%,92.156863%);stroke-opacity:1;stroke-miterlimit:10;" d="M 6 4.320312 L 6.5 4.328125 L 7 4.351562 L 7.5 4.386719 L 8 4.4375 L 8.5 4.5 L 9 4.582031 L 9.5 4.671875 L 10 4.78125 L 10.5 4.902344 L 11 5.039062 L 11.5 5.1875 L 12 5.351562 L 12.5 5.527344 L 13 5.71875 L 13.5 5.925781 L 14 6.140625 L 14.5 6.375 L 15 6.617188 L 15.5 6.875 L 16 7.144531 L 16.5 7.429688 L 17 7.726562 L 17.5 8.03125 L 18 8.355469 L 18.5 8.6875 L 19 9.03125 L 19.5 9.386719 L 20 9.753906 L 20.5 10.132812 L 21 10.523438 L 21.5 10.925781 L 22 11.335938 L 22.5 11.757812 L 23 12.191406 L 23.5 12.632812 L 24 13.085938 L 24.5 13.546875 L 25 14.015625 L 25.5 14.496094 L 26 14.984375 L 26.5 15.480469 L 27 15.988281 L 27.5 16.5 L 28 17.023438 L 28.5 17.550781 L 29 18.089844 L 29.5 18.632812 L 30 19.183594 L 30.5 19.738281 L 31.5 20.871094 L 32.5 22.027344 L 33.5 23.207031 L 34.5 24.402344 L 35 25.007812 L 35.5 25.617188 L 36 26.230469 L 36.5 26.847656 L 37 27.46875 L 38 28.71875 L 38.5 29.347656 L 39.5 30.613281 L 40 31.25 L 40.5 31.890625 L 41 32.527344 L 41.5 33.171875 L 42 33.8125 L 44.5 37.035156 L 45 37.683594 L 47.5 40.90625 L 49.5 43.46875 L 50.5 44.742188 L 51.5 46.007812 L 52.5 47.265625 L 53 47.890625 L 54 49.132812 L 55 50.367188 L 56.5 52.195312 L 57.5 53.398438 L 58.5 54.585938 L 59 55.175781 L 59.5 55.761719 L 60.5 56.925781 L 61 57.5 L 61.5 58.070312 L 62.5 59.203125 L 63 59.761719 L 64 60.871094 L 64.5 61.417969 L 65 61.960938 L 65.5 62.5 L 66 63.035156 L 66.5 63.566406 L 67 64.09375 L 67.5 64.617188 L 68.5 65.648438 L 69 66.160156 L 69.5 66.664062 L 70 67.164062 L 70.5 67.660156 L 71 68.152344 L 71.5 68.640625 L 72 69.125 L 72.5 69.605469 L 73.5 70.550781 L 74 71.015625 L 74.5 71.476562 L 75 71.933594 L 75.5 72.386719 L 76 72.835938 L 76.5 73.28125 L 77.5 74.15625 L 78 74.585938 L 78.5 75.011719 L 79 75.433594 L 79.5 75.851562 L 80 76.265625 L 80.5 76.675781 L 81 77.082031 L 82 77.878906 L 82.5 78.273438 L 83 78.660156 L 84 79.425781 L 84.5 79.800781 L 85.5 80.542969 L 86 80.90625 L 86.5 81.265625 L 87 81.621094 L 87.5 81.972656 L 88.5 82.667969 L 89 83.007812 L 89.5 83.34375 L 90 83.675781 L 91 84.332031 L 92 84.972656 L 93 85.597656 L 94 86.207031 L 94.5 86.507812 L 95 86.804688 L 95.5 87.097656 L 96 87.386719 L 97 87.957031 L 98 88.511719 L 98.5 88.785156 L 99.5 89.324219 L 100.5 89.847656 L 101 90.105469 L 101.5 90.359375 L 102.5 90.859375 L 103 91.105469 L 103.5 91.347656 L 104 91.585938 L 105 92.054688 L 106 92.515625 L 106.5 92.742188 L 107 92.964844 L 108 93.402344 L 108.5 93.613281 L 109 93.828125 L 110.5 94.449219 L 111 94.648438 L 111.5 94.851562 L 112.5 95.242188 L 113.5 95.625 L 114 95.8125 L 115 96.179688 L 116 96.539062 L 117 96.890625 L 118 97.234375 L 118.5 97.402344 L 119.5 97.730469 L 121 98.210938 L 121.5 98.367188 L 123 98.824219 L 123.5 98.972656 L 125 99.40625 L 126 99.6875 L 127.5 100.097656 L 128 100.230469 L 128.5 100.359375 L 129 100.492188 L 129.5 100.617188 L 130 100.746094 L 131 100.996094 L 132 101.238281 L 134 101.707031 L 134.5 101.820312 L 135 101.929688 L 135.5 102.042969 L 136 102.152344 L 136.5 102.257812 L 137 102.367188 L 137.5 102.472656 L 138 102.574219 L 138.5 102.679688 L 139.5 102.882812 L 141 103.175781 L 141.5 103.269531 L 142 103.367188 L 142.5 103.460938 L 143 103.550781 L 143.5 103.644531 L 144.5 103.824219 L 147 104.253906 L 148.5 104.5 L 151 104.890625 L 153 105.1875 L 155.5 105.539062 L 156 105.605469 "/>
<path style="fill:none;stroke-width:1.5;stroke-linecap:round;stroke-linejoin:round;stroke:rgb(0%,0%,0%);stroke-opacity:1;stroke-miterlimit:10;" d="M 5.992188 119.011719 L 156.007812 119.011719 "/>
</g>
</svg>
