<?xml version="1.0" encoding="UTF-8"?>
<svg xmlns="http://www.w3.org/2000/svg" xmlns:xlink="http://www.w3.org/1999/xlink" width="162pt" height="121pt" viewBox="0 0 162 121" version="1.1">
<g id="surface862">
<path style="fill:none;stroke-width:2.25;stroke-linecap:round;stroke-linejoin:round;stroke:rgb(52.941176%,80.784314%,92.156863%);stroke-opacity:1;stroke-miterlimit:10;" d="M 6 112.359375 L 6.75 44.867188 L 7.5 31.316406 L 8.25 23.09375 L 9 17.453125 L 9.75 13.386719 L 10.5 10.402344 L 11.25 8.214844 L 12 6.632812 L 12.75 5.535156 L 13.5 4.828125 L 14.25 4.441406 L 15 4.320312 L 15.75 4.429688 L 16.5 4.726562 L 17.25 5.1875 L 18 5.789062 L 18.75 6.515625 L 19.5 7.34375 L 20.25 8.261719 L 21 9.257812 L 21.75 10.320312 L 22.5 11.441406 L 23.25 12.609375 L 24 13.824219 L 24.75 15.070312 L 25.5 16.351562 L 26.25 17.65625 L 27 18.980469 L 27.75 20.320312 L 28.5 21.675781 L 29.25 23.039062 L 30.75 25.789062 L 31.5 27.167969 L 33.75 31.292969 L 34.5 32.65625 L 35.25 34.015625 L 36 35.371094 L 36.75 36.710938 L 37.5 38.042969 L 38.25 39.367188 L 39 40.675781 L 39.75 41.972656 L 40.5 43.253906 L 41.25 44.527344 L 42 45.78125 L 42.75 47.023438 L 43.5 48.246094 L 44.25 49.457031 L 45 50.652344 L 45.75 51.832031 L 46.5 52.992188 L 47.25 54.140625 L 48 55.269531 L 48.75 56.382812 L 49.5 57.480469 L 50.25 58.558594 L 51 59.621094 L 51.75 60.667969 L 52.5 61.699219 L 53.25 62.710938 L 54 63.707031 L 54.75 64.6875 L 55.5 65.652344 L 56.25 66.597656 L 57 67.53125 L 57.75 68.445312 L 58.5 69.34375 L 59.25 70.226562 L 60 71.09375 L 60.75 71.945312 L 61.5 72.78125 L 62.25 73.605469 L 63 74.410156 L 63.75 75.203125 L 64.5 75.980469 L 65.25 76.742188 L 66 77.488281 L 66.75 78.222656 L 67.5 78.941406 L 68.25 79.648438 L 69 80.34375 L 69.75 81.023438 L 70.5 81.6875 L 71.25 82.339844 L 72 82.980469 L 72.75 83.609375 L 73.5 84.226562 L 74.25 84.828125 L 75 85.421875 L 75.75 86 L 76.5 86.570312 L 77.25 87.125 L 78 87.671875 L 78.75 88.207031 L 79.5 88.730469 L 80.25 89.242188 L 81 89.746094 L 81.75 90.238281 L 82.5 90.71875 L 83.25 91.191406 L 84 91.65625 L 84.75 92.109375 L 85.5 92.550781 L 86.25 92.984375 L 87 93.410156 L 87.75 93.828125 L 88.5 94.234375 L 89.25 94.636719 L 90 95.027344 L 90.75 95.410156 L 91.5 95.785156 L 92.25 96.152344 L 93 96.511719 L 93.75 96.863281 L 94.5 97.207031 L 95.25 97.542969 L 96 97.871094 L 96.75 98.195312 L 98.25 98.820312 L 99 99.121094 L 99.75 99.417969 L 100.5 99.707031 L 101.25 99.988281 L 102 100.265625 L 102.75 100.535156 L 103.5 100.800781 L 104.25 101.0625 L 105 101.316406 L 105.75 101.5625 L 106.5 101.804688 L 107.25 102.042969 L 108 102.277344 L 108.75 102.503906 L 109.5 102.726562 L 111 103.15625 L 111.75 103.363281 L 112.5 103.566406 L 113.25 103.765625 L 114 103.960938 L 114.75 104.152344 L 116.25 104.519531 L 117 104.699219 L 118.5 105.042969 L 120 105.371094 L 120.75 105.53125 L 122.25 105.835938 L 123.75 106.132812 L 125.25 106.414062 L 127.5 106.8125 L 129 107.0625 L 129.75 107.183594 L 131.25 107.417969 L 132 107.53125 L 133.5 107.75 L 135 107.960938 L 135.75 108.0625 L 137.25 108.257812 L 138.75 108.445312 L 139.5 108.535156 L 141.75 108.792969 L 142.5 108.875 L 143.25 108.953125 L 144 109.035156 L 147 109.332031 L 147.75 109.402344 L 150 109.601562 L 152.25 109.789062 L 154.5 109.964844 L 156 110.074219 "/>
<path style="fill:none;stroke-width:1.5;stroke-linecap:round;stroke-linejoin:round;stroke:rgb(0%,0%,0%);stroke-opacity:1;stroke-miterlimit:10;" d="M 5.992188 119.011719 L 156.007812 119.011719 "/>
</g>
</svg>
