<?xml version="1.0" encoding="UTF-8"?>
<svg xmlns="http://www.w3.org/2000/svg" xmlns:xlink="http://www.w3.org/1999/xlink" width="162pt" height="121pt" viewBox="0 0 162 121" version="1.1">
<g id="surface922">
<path style="fill:none;stroke-width:2.25;stroke-linecap:round;stroke-linejoin:round;stroke:rgb(52.941176%,80.784314%,92.156863%);stroke-opacity:1;stroke-miterlimit:10;" d="M 6 112.359375 L 6.601562 112.359375 L 6.898438 112.355469 L 7.5 112.347656 L 7.800781 112.339844 L 8.101562 112.328125 L 8.398438 112.308594 L 8.699219 112.289062 L 9 112.261719 L 9.300781 112.226562 L 9.601562 112.1875 L 9.898438 112.136719 L 10.199219 112.078125 L 10.5 112.011719 L 10.800781 111.9375 L 11.101562 111.847656 L 11.398438 111.75 L 11.699219 111.640625 L 12 111.519531 L 12.300781 111.386719 L 12.601562 111.238281 L 12.898438 111.078125 L 13.199219 110.902344 L 13.5 110.710938 L 13.800781 110.507812 L 14.101562 110.285156 L 14.398438 110.050781 L 14.699219 109.796875 L 15 109.527344 L 15.300781 109.242188 L 15.601562 108.9375 L 15.898438 108.617188 L 16.199219 108.28125 L 16.5 107.925781 L 16.800781 107.550781 L 17.101562 107.160156 L 17.398438 106.75 L 17.699219 106.320312 L 18 105.875 L 18.300781 105.410156 L 18.601562 104.925781 L 18.898438 104.425781 L 19.199219 103.902344 L 19.5 103.367188 L 19.800781 102.808594 L 20.101562 102.234375 L 20.398438 101.640625 L 20.699219 101.027344 L 21 100.398438 L 21.300781 99.75 L 21.601562 99.085938 L 21.898438 98.402344 L 22.199219 97.703125 L 22.5 96.988281 L 22.800781 96.253906 L 23.101562 95.503906 L 23.398438 94.738281 L 23.699219 93.957031 L 24 93.160156 L 24.300781 92.347656 L 24.601562 91.519531 L 24.898438 90.675781 L 25.199219 89.820312 L 25.5 88.953125 L 25.800781 88.070312 L 26.101562 87.171875 L 26.398438 86.261719 L 26.699219 85.34375 L 27 84.410156 L 27.300781 83.464844 L 27.601562 82.511719 L 27.898438 81.546875 L 28.199219 80.570312 L 28.5 79.585938 L 28.800781 78.59375 L 29.101562 77.589844 L 29.398438 76.578125 L 29.699219 75.5625 L 30 74.535156 L 30.300781 73.503906 L 30.601562 72.464844 L 30.898438 71.421875 L 31.199219 70.375 L 31.5 69.320312 L 31.800781 68.261719 L 32.101562 67.199219 L 32.398438 66.136719 L 32.699219 65.070312 L 33.300781 62.929688 L 33.601562 61.855469 L 33.898438 60.785156 L 34.5 58.636719 L 34.800781 57.566406 L 35.101562 56.492188 L 35.398438 55.425781 L 35.699219 54.355469 L 36.300781 52.230469 L 36.601562 51.171875 L 36.898438 50.117188 L 37.5 48.023438 L 37.800781 46.984375 L 38.101562 45.949219 L 38.398438 44.921875 L 38.699219 43.902344 L 39 42.886719 L 39.300781 41.882812 L 39.601562 40.882812 L 39.898438 39.890625 L 40.199219 38.910156 L 40.5 37.933594 L 40.800781 36.972656 L 41.101562 36.015625 L 41.398438 35.070312 L 41.699219 34.136719 L 42 33.210938 L 42.300781 32.300781 L 42.898438 30.507812 L 43.199219 29.628906 L 43.5 28.761719 L 43.800781 27.90625 L 44.101562 27.066406 L 44.398438 26.238281 L 44.699219 25.421875 L 45 24.617188 L 45.300781 23.832031 L 45.601562 23.054688 L 45.898438 22.292969 L 46.199219 21.546875 L 46.5 20.816406 L 46.800781 20.097656 L 47.101562 19.394531 L 47.398438 18.707031 L 47.699219 18.035156 L 48 17.378906 L 48.300781 16.734375 L 48.601562 16.109375 L 48.898438 15.5 L 49.199219 14.902344 L 49.5 14.324219 L 49.800781 13.761719 L 50.101562 13.214844 L 50.398438 12.683594 L 50.699219 12.167969 L 51 11.671875 L 51.300781 11.1875 L 51.601562 10.722656 L 51.898438 10.273438 L 52.199219 9.839844 L 52.5 9.425781 L 52.800781 9.027344 L 53.101562 8.644531 L 53.398438 8.277344 L 53.699219 7.925781 L 54 7.59375 L 54.300781 7.277344 L 54.601562 6.976562 L 54.898438 6.691406 L 55.199219 6.421875 L 55.5 6.171875 L 55.800781 5.9375 L 56.101562 5.71875 L 56.398438 5.515625 L 56.699219 5.328125 L 57 5.160156 L 57.300781 5.003906 L 57.601562 4.867188 L 57.898438 4.746094 L 58.199219 4.636719 L 58.5 4.546875 L 58.800781 4.472656 L 59.101562 4.410156 L 59.398438 4.367188 L 59.699219 4.335938 L 60 4.320312 L 60.300781 4.320312 L 60.601562 4.335938 L 60.898438 4.367188 L 61.199219 4.410156 L 61.5 4.46875 L 61.800781 4.542969 L 62.101562 4.628906 L 62.398438 4.730469 L 62.699219 4.84375 L 63 4.972656 L 63.300781 5.113281 L 63.601562 5.269531 L 63.898438 5.4375 L 64.199219 5.617188 L 64.5 5.8125 L 64.800781 6.015625 L 65.101562 6.234375 L 65.398438 6.464844 L 65.699219 6.710938 L 66 6.964844 L 66.300781 7.230469 L 66.601562 7.507812 L 66.898438 7.796875 L 67.199219 8.097656 L 67.5 8.410156 L 67.800781 8.730469 L 68.101562 9.0625 L 68.398438 9.40625 L 68.699219 9.761719 L 69 10.125 L 69.300781 10.496094 L 69.601562 10.878906 L 69.898438 11.269531 L 70.199219 11.671875 L 70.5 12.082031 L 70.800781 12.5 L 71.101562 12.925781 L 71.398438 13.363281 L 71.699219 13.804688 L 72 14.257812 L 72.300781 14.71875 L 72.601562 15.183594 L 72.898438 15.660156 L 73.199219 16.140625 L 73.5 16.628906 L 73.800781 17.125 L 74.101562 17.628906 L 74.398438 18.136719 L 74.699219 18.652344 L 75 19.171875 L 75.300781 19.699219 L 75.601562 20.230469 L 75.898438 20.769531 L 76.199219 21.3125 L 76.5 21.859375 L 76.800781 22.414062 L 77.101562 22.972656 L 77.398438 23.535156 L 77.699219 24.101562 L 78 24.671875 L 78.601562 25.828125 L 78.898438 26.410156 L 79.199219 26.996094 L 79.5 27.585938 L 80.101562 28.773438 L 80.398438 29.375 L 80.699219 29.972656 L 81.300781 31.183594 L 81.601562 31.792969 L 81.898438 32.402344 L 82.5 33.628906 L 83.101562 34.863281 L 83.398438 35.480469 L 83.699219 36.101562 L 84 36.71875 L 84.300781 37.34375 L 84.601562 37.964844 L 84.898438 38.585938 L 85.199219 39.210938 L 85.5 39.832031 L 86.101562 41.082031 L 86.398438 41.703125 L 87 42.953125 L 87.601562 44.195312 L 87.898438 44.816406 L 88.800781 46.679688 L 89.101562 47.296875 L 89.398438 47.914062 L 89.699219 48.527344 L 90 49.144531 L 90.300781 49.757812 L 90.601562 50.367188 L 90.898438 50.976562 L 91.199219 51.585938 L 91.800781 52.796875 L 92.101562 53.398438 L 92.398438 53.996094 L 93 55.191406 L 93.300781 55.785156 L 93.601562 56.375 L 93.898438 56.964844 L 94.199219 57.550781 L 94.800781 58.714844 L 95.101562 59.292969 L 95.398438 59.867188 L 96 61.007812 L 96.300781 61.574219 L 96.601562 62.136719 L 96.898438 62.699219 L 97.5 63.808594 L 97.800781 64.359375 L 98.101562 64.90625 L 98.398438 65.453125 L 99 66.53125 L 99.601562 67.59375 L 99.898438 68.121094 L 100.199219 68.644531 L 100.5 69.164062 L 101.101562 70.195312 L 101.398438 70.703125 L 102 71.710938 L 102.601562 72.703125 L 102.898438 73.191406 L 103.199219 73.679688 L 103.800781 74.640625 L 104.101562 75.113281 L 104.398438 75.585938 L 104.699219 76.054688 L 105.300781 76.976562 L 105.601562 77.433594 L 105.898438 77.882812 L 106.199219 78.332031 L 106.800781 79.214844 L 107.101562 79.652344 L 107.398438 80.082031 L 107.699219 80.511719 L 108.300781 81.355469 L 108.601562 81.769531 L 108.898438 82.183594 L 109.5 82.996094 L 110.101562 83.792969 L 110.398438 84.183594 L 110.699219 84.574219 L 111.300781 85.339844 L 111.601562 85.714844 L 111.898438 86.085938 L 112.199219 86.457031 L 112.800781 87.183594 L 113.101562 87.539062 L 113.398438 87.894531 L 113.699219 88.246094 L 114.300781 88.933594 L 114.601562 89.269531 L 114.898438 89.605469 L 115.199219 89.9375 L 115.5 90.265625 L 115.800781 90.589844 L 116.101562 90.90625 L 116.398438 91.222656 L 117 91.847656 L 117.300781 92.152344 L 117.898438 92.75 L 118.199219 93.046875 L 118.800781 93.625 L 119.101562 93.910156 L 119.398438 94.191406 L 119.699219 94.46875 L 120 94.742188 L 120.601562 95.28125 L 120.898438 95.542969 L 121.199219 95.804688 L 121.5 96.0625 L 121.800781 96.316406 L 122.101562 96.566406 L 122.398438 96.816406 L 123 97.300781 L 123.300781 97.539062 L 123.601562 97.773438 L 123.898438 98.007812 L 124.5 98.460938 L 124.800781 98.683594 L 125.101562 98.902344 L 125.398438 99.121094 L 125.699219 99.335938 L 126 99.546875 L 126.601562 99.960938 L 126.898438 100.164062 L 127.199219 100.363281 L 127.800781 100.753906 L 128.101562 100.945312 L 128.398438 101.136719 L 129.300781 101.6875 L 129.601562 101.867188 L 129.898438 102.042969 L 130.5 102.386719 L 130.800781 102.554688 L 131.101562 102.71875 L 131.398438 102.882812 L 131.699219 103.046875 L 132.601562 103.515625 L 132.898438 103.667969 L 133.5 103.964844 L 134.101562 104.253906 L 134.398438 104.394531 L 135.300781 104.804688 L 135.601562 104.9375 L 135.898438 105.066406 L 136.5 105.324219 L 136.800781 105.449219 L 137.101562 105.570312 L 137.398438 105.691406 L 138.300781 106.042969 L 138.601562 106.15625 L 138.898438 106.265625 L 139.5 106.484375 L 140.101562 106.695312 L 140.398438 106.796875 L 141 107 L 141.601562 107.195312 L 141.898438 107.289062 L 142.199219 107.382812 L 143.101562 107.652344 L 143.398438 107.738281 L 144 107.910156 L 144.601562 108.074219 L 144.898438 108.15625 L 145.5 108.3125 L 145.800781 108.386719 L 146.101562 108.464844 L 146.398438 108.535156 L 146.699219 108.609375 L 147.601562 108.820312 L 147.898438 108.886719 L 148.5 109.019531 L 149.101562 109.144531 L 149.398438 109.207031 L 149.699219 109.269531 L 150.601562 109.445312 L 150.898438 109.5 L 151.199219 109.558594 L 151.5 109.613281 L 151.800781 109.664062 L 152.101562 109.71875 L 152.398438 109.769531 L 153 109.871094 L 153.300781 109.917969 L 153.601562 109.96875 L 153.898438 110.015625 L 154.5 110.109375 L 155.101562 110.195312 L 155.398438 110.238281 L 156 110.324219 "/>
<path style="fill:none;stroke-width:1.5;stroke-linecap:round;stroke-linejoin:round;stroke:rgb(0%,0%,0%);stroke-opacity:1;stroke-miterlimit:10;" d="M 5.992188 119.011719 L 156.007812 119.011719 "/>
</g>
</svg>
