<?xml version="1.0" encoding="UTF-8"?>
<svg xmlns="http://www.w3.org/2000/svg" xmlns:xlink="http://www.w3.org/1999/xlink" width="162pt" height="121pt" viewBox="0 0 162 121" version="1.1">
<g id="surface1002">
<path style="fill:none;stroke-width:2.25;stroke-linecap:round;stroke-linejoin:round;stroke:rgb(52.941176%,80.784314%,92.156863%);stroke-opacity:1;stroke-miterlimit:10;" d="M 6 4.320312 L 6.5 4.328125 L 7 4.34375 L 7.5 4.371094 L 8 4.40625 L 8.5 4.457031 L 9 4.515625 L 9.5 4.585938 L 10 4.667969 L 10.5 4.757812 L 11 4.859375 L 11.5 4.972656 L 12 5.097656 L 12.5 5.230469 L 13 5.375 L 13.5 5.53125 L 14 5.695312 L 14.5 5.871094 L 15 6.058594 L 15.5 6.253906 L 16 6.460938 L 16.5 6.675781 L 17 6.90625 L 17.5 7.140625 L 18 7.386719 L 18.5 7.644531 L 19 7.914062 L 19.5 8.1875 L 20 8.472656 L 20.5 8.769531 L 21 9.074219 L 21.5 9.390625 L 22 9.714844 L 22.5 10.046875 L 23 10.390625 L 23.5 10.738281 L 24 11.101562 L 24.5 11.46875 L 25 11.847656 L 25.5 12.234375 L 26 12.628906 L 26.5 13.03125 L 27 13.441406 L 27.5 13.863281 L 28 14.289062 L 28.5 14.726562 L 29 15.167969 L 29.5 15.617188 L 30 16.078125 L 30.5 16.542969 L 31 17.015625 L 31.5 17.496094 L 32 17.984375 L 32.5 18.476562 L 33 18.980469 L 33.5 19.488281 L 34 20 L 34.5 20.519531 L 35 21.046875 L 35.5 21.578125 L 36 22.117188 L 37 23.210938 L 38 24.328125 L 38.5 24.894531 L 39 25.464844 L 40 26.621094 L 40.5 27.207031 L 41 27.796875 L 41.5 28.390625 L 42 28.988281 L 43 30.199219 L 43.5 30.808594 L 44 31.421875 L 45 32.65625 L 46 33.90625 L 46.5 34.535156 L 47.5 35.800781 L 48 36.4375 L 49 37.71875 L 50.5 39.652344 L 51.5 40.949219 L 52 41.601562 L 52.5 42.25 L 53 42.902344 L 53.5 43.558594 L 54 44.210938 L 54.5 44.867188 L 55 45.519531 L 56 46.832031 L 56.5 47.484375 L 57.5 48.796875 L 58 49.449219 L 58.5 50.105469 L 60 52.0625 L 60.5 52.710938 L 61 53.363281 L 61.5 54.011719 L 62 54.65625 L 62.5 55.304688 L 63 55.945312 L 63.5 56.589844 L 64 57.230469 L 65.5 59.140625 L 66 59.769531 L 66.5 60.402344 L 68 62.277344 L 69 63.511719 L 70 64.738281 L 71 65.949219 L 72 67.152344 L 72.5 67.746094 L 73.5 68.925781 L 74 69.511719 L 75 70.667969 L 75.5 71.242188 L 76 71.8125 L 77 72.9375 L 77.5 73.496094 L 78 74.050781 L 79 75.144531 L 79.5 75.6875 L 80 76.222656 L 81 77.285156 L 81.5 77.808594 L 82 78.328125 L 82.5 78.84375 L 83.5 79.859375 L 84 80.359375 L 85 81.351562 L 86 82.320312 L 87 83.273438 L 87.5 83.742188 L 88.5 84.664062 L 89.5 85.570312 L 90.5 86.453125 L 91 86.890625 L 91.5 87.320312 L 92 87.746094 L 92.5 88.167969 L 93 88.582031 L 93.5 88.992188 L 94 89.398438 L 94.5 89.800781 L 95 90.199219 L 95.5 90.589844 L 96 90.976562 L 96.5 91.359375 L 97 91.738281 L 98 92.480469 L 98.5 92.84375 L 99 93.203125 L 100 93.90625 L 100.5 94.25 L 101 94.589844 L 101.5 94.925781 L 102.5 95.582031 L 103 95.902344 L 103.5 96.21875 L 104 96.53125 L 104.5 96.839844 L 105 97.144531 L 106 97.738281 L 106.5 98.027344 L 107 98.3125 L 107.5 98.59375 L 108 98.871094 L 108.5 99.144531 L 109 99.414062 L 109.5 99.679688 L 110.5 100.195312 L 111 100.449219 L 112 100.941406 L 112.5 101.179688 L 113.5 101.648438 L 114.5 102.101562 L 115.5 102.539062 L 116.5 102.960938 L 117 103.167969 L 117.5 103.371094 L 118.5 103.761719 L 119.5 104.144531 L 120 104.328125 L 121 104.6875 L 121.5 104.863281 L 122 105.035156 L 122.5 105.203125 L 123 105.367188 L 124 105.6875 L 124.5 105.84375 L 125.5 106.148438 L 126.5 106.4375 L 127.5 106.71875 L 128 106.851562 L 128.5 106.988281 L 129.5 107.246094 L 130 107.371094 L 131 107.613281 L 131.5 107.730469 L 132.5 107.957031 L 133.5 108.175781 L 134 108.28125 L 135 108.484375 L 136 108.679688 L 137 108.867188 L 138 109.046875 L 139 109.21875 L 139.5 109.300781 L 140 109.378906 L 140.5 109.460938 L 141 109.535156 L 141.5 109.613281 L 142 109.683594 L 142.5 109.757812 L 143 109.828125 L 145 110.09375 L 145.5 110.152344 L 146 110.214844 L 147 110.332031 L 147.5 110.386719 L 148 110.445312 L 148.5 110.496094 L 149 110.550781 L 150 110.652344 L 151.5 110.792969 L 152 110.835938 L 152.5 110.882812 L 153 110.925781 L 153.5 110.964844 L 154 111.007812 L 155 111.085938 L 155.5 111.121094 L 156 111.160156 "/>
<path style="fill:none;stroke-width:1.5;stroke-linecap:round;stroke-linejoin:round;stroke:rgb(0%,0%,0%);stroke-opacity:1;stroke-miterlimit:10;" d="M 5.992188 119.011719 L 156.007812 119.011719 "/>
</g>
</svg>
