<?xml version="1.0" encoding="UTF-8"?>
<svg xmlns="http://www.w3.org/2000/svg" xmlns:xlink="http://www.w3.org/1999/xlink" width="162pt" height="121pt" viewBox="0 0 162 121" version="1.1">
<g id="surface867">
<path style="fill:none;stroke-width:2.25;stroke-linecap:round;stroke-linejoin:round;stroke:rgb(52.941176%,80.784314%,92.156863%);stroke-opacity:1;stroke-miterlimit:10;" d="M 7.363281 112.359375 L 11.453125 112.359375 L 12.816406 112.351562 L 14.183594 112.253906 L 15.546875 111.757812 L 16.910156 110.261719 L 18.273438 107.109375 L 19.636719 101.898438 L 21 94.625 L 22.363281 85.648438 L 23.726562 75.542969 L 25.089844 64.945312 L 26.453125 54.4375 L 27.816406 44.488281 L 29.183594 35.4375 L 30.546875 27.503906 L 31.910156 20.792969 L 33.273438 15.324219 L 34.636719 11.070312 L 36 7.945312 L 37.363281 5.855469 L 38.726562 4.6875 L 40.089844 4.320312 L 41.453125 4.648438 L 42.816406 5.5625 L 44.183594 6.960938 L 45.546875 8.761719 L 46.910156 10.878906 L 48.273438 13.25 L 49.636719 15.8125 L 51 18.511719 L 52.363281 21.3125 L 53.726562 24.171875 L 55.089844 27.0625 L 56.453125 29.957031 L 57.816406 32.835938 L 59.183594 35.679688 L 60.546875 38.476562 L 61.910156 41.21875 L 63.273438 43.890625 L 64.636719 46.496094 L 66 49.019531 L 67.363281 51.464844 L 68.726562 53.832031 L 70.089844 56.113281 L 71.453125 58.3125 L 72.816406 60.429688 L 74.183594 62.464844 L 75.546875 64.421875 L 76.910156 66.300781 L 78.273438 68.101562 L 79.636719 69.828125 L 81 71.484375 L 82.363281 73.074219 L 83.726562 74.59375 L 85.089844 76.050781 L 86.453125 77.445312 L 87.816406 78.777344 L 89.183594 80.054688 L 90.546875 81.28125 L 91.910156 82.449219 L 93.273438 83.570312 L 94.636719 84.644531 L 96 85.671875 L 97.363281 86.652344 L 98.726562 87.59375 L 100.089844 88.496094 L 101.453125 89.359375 L 102.816406 90.1875 L 104.183594 90.980469 L 105.546875 91.738281 L 106.910156 92.464844 L 108.273438 93.164062 L 109.636719 93.832031 L 111 94.472656 L 112.363281 95.085938 L 113.726562 95.675781 L 115.089844 96.242188 L 116.453125 96.785156 L 117.816406 97.304688 L 119.183594 97.804688 L 120.546875 98.285156 L 121.910156 98.746094 L 123.273438 99.191406 L 124.636719 99.617188 L 126 100.027344 L 127.363281 100.417969 L 128.726562 100.796875 L 130.089844 101.160156 L 131.453125 101.511719 L 132.816406 101.847656 L 134.183594 102.171875 L 135.546875 102.484375 L 136.910156 102.785156 L 138.273438 103.074219 L 139.636719 103.355469 L 141 103.621094 L 142.363281 103.882812 L 143.726562 104.132812 L 145.089844 104.371094 L 146.453125 104.605469 L 147.816406 104.828125 L 149.183594 105.042969 L 150.546875 105.253906 L 151.910156 105.453125 L 153.273438 105.648438 L 154.636719 105.835938 L 156 106.019531 "/>
<path style="fill:none;stroke-width:1.5;stroke-linecap:round;stroke-linejoin:round;stroke:rgb(0%,0%,0%);stroke-opacity:1;stroke-miterlimit:10;" d="M 5.992188 119.011719 L 156.007812 119.011719 "/>
</g>
</svg>
