<?xml version="1.0" encoding="UTF-8"?>
<svg xmlns="http://www.w3.org/2000/svg" xmlns:xlink="http://www.w3.org/1999/xlink" width="162pt" height="121pt" viewBox="0 0 162 121" version="1.1">
<g id="surface927">
<path style="fill:none;stroke-width:2.25;stroke-linecap:round;stroke-linejoin:round;stroke:rgb(52.941176%,80.784314%,92.156863%);stroke-opacity:1;stroke-miterlimit:10;" d="M 6 107.664062 L 6.167969 107.617188 L 6.332031 107.570312 L 6.667969 107.476562 L 6.832031 107.425781 L 7.167969 107.332031 L 7.332031 107.28125 L 7.667969 107.179688 L 7.832031 107.128906 L 8.167969 107.027344 L 8.332031 106.976562 L 8.667969 106.867188 L 8.832031 106.816406 L 9.167969 106.707031 L 9.332031 106.652344 L 9.5 106.59375 L 9.667969 106.539062 L 9.832031 106.480469 L 10 106.425781 L 10.167969 106.367188 L 10.332031 106.308594 L 10.5 106.25 L 10.667969 106.1875 L 10.832031 106.128906 L 11 106.066406 L 11.167969 106.007812 L 11.332031 105.945312 L 11.667969 105.820312 L 11.832031 105.753906 L 12 105.691406 L 12.167969 105.625 L 12.332031 105.5625 L 12.667969 105.429688 L 12.832031 105.359375 L 13 105.292969 L 13.167969 105.222656 L 13.332031 105.15625 L 13.667969 105.015625 L 13.832031 104.941406 L 14.167969 104.800781 L 14.332031 104.726562 L 14.667969 104.578125 L 14.832031 104.5 L 15 104.425781 L 15.167969 104.347656 L 15.332031 104.273438 L 15.5 104.195312 L 15.667969 104.113281 L 15.832031 104.035156 L 16 103.953125 L 16.167969 103.875 L 16.332031 103.792969 L 16.5 103.710938 L 16.667969 103.625 L 16.832031 103.542969 L 17.167969 103.371094 L 17.332031 103.285156 L 17.5 103.199219 L 17.667969 103.109375 L 17.832031 103.019531 L 18.167969 102.839844 L 18.332031 102.75 L 18.667969 102.5625 L 18.832031 102.46875 L 19.167969 102.28125 L 19.332031 102.183594 L 19.667969 101.988281 L 19.832031 101.890625 L 20.167969 101.6875 L 20.332031 101.585938 L 20.5 101.484375 L 20.667969 101.378906 L 20.832031 101.277344 L 21 101.171875 L 21.167969 101.0625 L 21.332031 100.957031 L 21.667969 100.738281 L 21.832031 100.628906 L 22 100.515625 L 22.167969 100.40625 L 22.332031 100.292969 L 22.5 100.179688 L 22.667969 100.0625 L 22.832031 99.945312 L 23.167969 99.710938 L 23.332031 99.589844 L 23.5 99.472656 L 23.667969 99.347656 L 23.832031 99.226562 L 24 99.101562 L 24.167969 98.980469 L 24.332031 98.851562 L 24.5 98.726562 L 24.667969 98.597656 L 24.832031 98.46875 L 25 98.339844 L 25.167969 98.207031 L 25.332031 98.074219 L 25.5 97.941406 L 25.667969 97.804688 L 25.832031 97.671875 L 26 97.535156 L 26.167969 97.394531 L 26.332031 97.253906 L 26.667969 96.972656 L 26.832031 96.828125 L 27 96.6875 L 27.167969 96.539062 L 27.332031 96.394531 L 27.667969 96.097656 L 27.832031 95.945312 L 28.167969 95.640625 L 28.332031 95.484375 L 28.5 95.332031 L 28.667969 95.171875 L 28.832031 95.015625 L 29.167969 94.695312 L 29.332031 94.53125 L 29.5 94.371094 L 30.167969 93.703125 L 30.332031 93.53125 L 30.667969 93.1875 L 30.832031 93.011719 L 31 92.835938 L 31.167969 92.65625 L 31.332031 92.480469 L 31.5 92.300781 L 31.667969 92.117188 L 31.832031 91.933594 L 32 91.75 L 32.167969 91.5625 L 32.332031 91.375 L 32.5 91.1875 L 32.667969 90.996094 L 32.832031 90.804688 L 33.167969 90.414062 L 33.332031 90.21875 L 33.667969 89.820312 L 33.832031 89.621094 L 34 89.417969 L 34.167969 89.210938 L 34.332031 89.007812 L 34.5 88.796875 L 34.667969 88.589844 L 34.832031 88.378906 L 35 88.167969 L 35.167969 87.953125 L 35.332031 87.738281 L 35.667969 87.300781 L 35.832031 87.082031 L 36 86.859375 L 36.167969 86.632812 L 36.332031 86.410156 L 36.5 86.183594 L 36.667969 85.953125 L 36.832031 85.722656 L 37 85.492188 L 37.167969 85.257812 L 37.332031 85.023438 L 37.667969 84.546875 L 37.832031 84.304688 L 38.167969 83.820312 L 38.332031 83.574219 L 38.5 83.328125 L 38.667969 83.078125 L 38.832031 82.828125 L 39.167969 82.320312 L 39.332031 82.0625 L 39.667969 81.546875 L 39.832031 81.285156 L 40 81.019531 L 40.167969 80.757812 L 40.332031 80.488281 L 40.5 80.222656 L 40.667969 79.949219 L 40.832031 79.679688 L 41 79.40625 L 41.167969 79.128906 L 41.332031 78.851562 L 41.5 78.574219 L 41.667969 78.292969 L 41.832031 78.007812 L 42.167969 77.4375 L 42.332031 77.148438 L 42.5 76.859375 L 42.667969 76.566406 L 42.832031 76.273438 L 43 75.980469 L 43.167969 75.683594 L 43.332031 75.382812 L 43.667969 74.78125 L 43.832031 74.476562 L 44.167969 73.859375 L 44.332031 73.550781 L 44.667969 72.925781 L 44.832031 72.613281 L 45 72.292969 L 45.167969 71.976562 L 45.332031 71.65625 L 45.667969 71.007812 L 45.832031 70.683594 L 46.167969 70.027344 L 46.332031 69.695312 L 46.5 69.363281 L 46.667969 69.027344 L 46.832031 68.691406 L 47 68.355469 L 47.167969 68.015625 L 47.332031 67.671875 L 47.5 67.332031 L 47.667969 66.984375 L 47.832031 66.640625 L 48 66.292969 L 48.167969 65.941406 L 48.332031 65.589844 L 48.5 65.238281 L 48.667969 64.882812 L 48.832031 64.527344 L 49.167969 63.808594 L 49.332031 63.449219 L 49.667969 62.722656 L 49.832031 62.355469 L 50.167969 61.621094 L 50.332031 61.25 L 50.5 60.878906 L 50.667969 60.503906 L 50.832031 60.128906 L 51 59.753906 L 51.167969 59.375 L 51.332031 58.996094 L 51.5 58.617188 L 51.667969 58.234375 L 51.832031 57.851562 L 52 57.46875 L 52.167969 57.082031 L 52.332031 56.695312 L 52.5 56.308594 L 52.667969 55.917969 L 52.832031 55.527344 L 53 55.136719 L 53.167969 54.742188 L 53.332031 54.347656 L 53.5 53.953125 L 53.667969 53.554688 L 53.832031 53.160156 L 54 52.761719 L 54.167969 52.359375 L 54.332031 51.960938 L 54.667969 51.15625 L 54.832031 50.753906 L 55.167969 49.941406 L 55.332031 49.535156 L 55.667969 48.722656 L 55.832031 48.3125 L 56 47.90625 L 56.167969 47.496094 L 56.332031 47.085938 L 56.5 46.675781 L 56.667969 46.261719 L 56.832031 45.851562 L 57.167969 45.023438 L 57.332031 44.609375 L 57.5 44.199219 L 57.667969 43.78125 L 57.832031 43.367188 L 58.167969 42.539062 L 58.332031 42.125 L 58.5 41.707031 L 58.667969 41.292969 L 58.832031 40.875 L 59 40.460938 L 59.167969 40.042969 L 59.332031 39.628906 L 59.5 39.214844 L 59.667969 38.796875 L 59.832031 38.382812 L 60 37.964844 L 60.167969 37.550781 L 60.332031 37.136719 L 60.667969 36.308594 L 60.832031 35.894531 L 61 35.480469 L 61.167969 35.070312 L 61.332031 34.65625 L 61.667969 33.835938 L 61.832031 33.425781 L 62.167969 32.605469 L 62.332031 32.199219 L 62.667969 31.386719 L 62.832031 30.980469 L 63.167969 30.175781 L 63.332031 29.773438 L 63.667969 28.976562 L 63.832031 28.578125 L 64 28.179688 L 64.167969 27.785156 L 64.332031 27.394531 L 64.5 27 L 64.667969 26.609375 L 64.832031 26.222656 L 65.167969 25.449219 L 65.332031 25.066406 L 65.5 24.683594 L 65.667969 24.304688 L 65.832031 23.925781 L 66 23.550781 L 66.167969 23.179688 L 66.332031 22.808594 L 66.5 22.4375 L 66.667969 22.070312 L 66.832031 21.707031 L 67 21.34375 L 67.167969 20.984375 L 67.332031 20.625 L 67.5 20.269531 L 67.667969 19.917969 L 67.832031 19.566406 L 68 19.21875 L 68.167969 18.875 L 68.332031 18.535156 L 68.5 18.195312 L 68.667969 17.859375 L 68.832031 17.527344 L 69 17.195312 L 69.167969 16.871094 L 69.332031 16.546875 L 69.667969 15.90625 L 69.832031 15.59375 L 70 15.28125 L 70.167969 14.976562 L 70.332031 14.671875 L 70.5 14.371094 L 70.667969 14.074219 L 70.832031 13.78125 L 71 13.488281 L 71.167969 13.203125 L 71.332031 12.921875 L 71.667969 12.367188 L 71.832031 12.097656 L 72 11.828125 L 72.167969 11.566406 L 72.332031 11.308594 L 72.667969 10.800781 L 72.832031 10.554688 L 73 10.3125 L 73.167969 10.074219 L 73.332031 9.839844 L 73.667969 9.386719 L 73.832031 9.164062 L 74 8.949219 L 74.167969 8.738281 L 74.332031 8.53125 L 74.5 8.328125 L 74.667969 8.128906 L 74.832031 7.9375 L 75 7.746094 L 75.167969 7.5625 L 75.332031 7.382812 L 75.667969 7.039062 L 75.832031 6.875 L 76 6.714844 L 76.167969 6.5625 L 76.332031 6.410156 L 76.5 6.265625 L 76.667969 6.125 L 76.832031 5.992188 L 77 5.863281 L 77.167969 5.738281 L 77.332031 5.617188 L 77.5 5.503906 L 77.667969 5.394531 L 77.832031 5.289062 L 78 5.191406 L 78.167969 5.097656 L 78.332031 5.011719 L 78.5 4.925781 L 78.667969 4.847656 L 78.832031 4.777344 L 79 4.710938 L 79.167969 4.648438 L 79.332031 4.589844 L 79.5 4.539062 L 79.667969 4.496094 L 79.832031 4.453125 L 80 4.417969 L 80.167969 4.390625 L 80.332031 4.363281 L 80.667969 4.332031 L 80.832031 4.324219 L 81 4.320312 L 81.167969 4.324219 L 81.332031 4.332031 L 81.667969 4.363281 L 81.832031 4.390625 L 82 4.417969 L 82.167969 4.453125 L 82.332031 4.496094 L 82.5 4.539062 L 82.667969 4.589844 L 82.832031 4.648438 L 83 4.710938 L 83.167969 4.777344 L 83.332031 4.847656 L 83.5 4.925781 L 83.667969 5.011719 L 83.832031 5.097656 L 84 5.191406 L 84.167969 5.289062 L 84.332031 5.394531 L 84.5 5.503906 L 84.667969 5.617188 L 84.832031 5.738281 L 85 5.863281 L 85.167969 5.992188 L 85.332031 6.125 L 85.5 6.265625 L 85.667969 6.410156 L 85.832031 6.5625 L 86 6.714844 L 86.167969 6.875 L 86.332031 7.039062 L 86.667969 7.382812 L 86.832031 7.5625 L 87 7.746094 L 87.167969 7.9375 L 87.332031 8.128906 L 87.5 8.328125 L 87.667969 8.53125 L 87.832031 8.738281 L 88 8.949219 L 88.167969 9.164062 L 88.332031 9.386719 L 88.667969 9.839844 L 88.832031 10.074219 L 89 10.3125 L 89.167969 10.554688 L 89.332031 10.800781 L 89.667969 11.308594 L 89.832031 11.566406 L 90 11.828125 L 90.167969 12.097656 L 90.332031 12.367188 L 90.667969 12.921875 L 90.832031 13.203125 L 91 13.488281 L 91.167969 13.78125 L 91.332031 14.074219 L 91.5 14.371094 L 91.667969 14.671875 L 91.832031 14.976562 L 92 15.28125 L 92.167969 15.59375 L 92.332031 15.90625 L 92.667969 16.546875 L 92.832031 16.871094 L 93 17.195312 L 93.167969 17.527344 L 93.332031 17.859375 L 93.5 18.195312 L 93.667969 18.535156 L 93.832031 18.875 L 94 19.21875 L 94.167969 19.566406 L 94.332031 19.917969 L 94.5 20.269531 L 94.667969 20.625 L 94.832031 20.984375 L 95 21.34375 L 95.167969 21.707031 L 95.332031 22.070312 L 95.5 22.4375 L 95.667969 22.808594 L 95.832031 23.179688 L 96 23.550781 L 96.167969 23.925781 L 96.332031 24.304688 L 96.5 24.683594 L 96.667969 25.066406 L 96.832031 25.449219 L 97.167969 26.222656 L 97.332031 26.609375 L 97.5 27 L 97.667969 27.394531 L 97.832031 27.785156 L 98 28.179688 L 98.167969 28.578125 L 98.332031 28.976562 L 98.667969 29.773438 L 98.832031 30.175781 L 99.167969 30.980469 L 99.332031 31.386719 L 99.667969 32.199219 L 99.832031 32.605469 L 100.167969 33.425781 L 100.332031 33.835938 L 100.667969 34.65625 L 100.832031 35.070312 L 101 35.480469 L 101.167969 35.894531 L 101.332031 36.308594 L 101.667969 37.136719 L 101.832031 37.550781 L 102 37.964844 L 102.167969 38.382812 L 102.332031 38.796875 L 102.5 39.214844 L 102.667969 39.628906 L 102.832031 40.042969 L 103 40.460938 L 103.167969 40.875 L 103.332031 41.292969 L 103.5 41.707031 L 103.667969 42.125 L 103.832031 42.539062 L 104.167969 43.367188 L 104.332031 43.78125 L 104.5 44.199219 L 104.667969 44.609375 L 104.832031 45.023438 L 105.167969 45.851562 L 105.332031 46.261719 L 105.5 46.675781 L 105.667969 47.085938 L 105.832031 47.496094 L 106 47.90625 L 106.167969 48.3125 L 106.332031 48.722656 L 106.667969 49.535156 L 106.832031 49.941406 L 107.167969 50.753906 L 107.332031 51.15625 L 107.667969 51.960938 L 107.832031 52.359375 L 108 52.761719 L 108.167969 53.160156 L 108.332031 53.554688 L 108.5 53.953125 L 108.667969 54.347656 L 108.832031 54.742188 L 109 55.136719 L 109.167969 55.527344 L 109.332031 55.917969 L 109.5 56.308594 L 109.667969 56.695312 L 109.832031 57.082031 L 110 57.46875 L 110.167969 57.851562 L 110.332031 58.234375 L 110.5 58.617188 L 110.667969 58.996094 L 110.832031 59.375 L 111 59.753906 L 111.167969 60.128906 L 111.332031 60.503906 L 111.5 60.878906 L 111.667969 61.25 L 111.832031 61.621094 L 112.167969 62.355469 L 112.332031 62.722656 L 112.667969 63.449219 L 112.832031 63.808594 L 113.167969 64.527344 L 113.332031 64.882812 L 113.5 65.238281 L 113.667969 65.589844 L 113.832031 65.941406 L 114 66.292969 L 114.167969 66.640625 L 114.332031 66.984375 L 114.5 67.332031 L 114.667969 67.671875 L 114.832031 68.015625 L 115 68.355469 L 115.167969 68.691406 L 115.332031 69.027344 L 115.5 69.363281 L 115.667969 69.695312 L 115.832031 70.027344 L 116.167969 70.683594 L 116.332031 71.007812 L 116.667969 71.65625 L 116.832031 71.976562 L 117 72.292969 L 117.167969 72.613281 L 117.332031 72.925781 L 117.667969 73.550781 L 117.832031 73.859375 L 118.167969 74.476562 L 118.332031 74.78125 L 118.667969 75.382812 L 118.832031 75.683594 L 119 75.980469 L 119.167969 76.273438 L 119.332031 76.566406 L 119.5 76.859375 L 119.667969 77.148438 L 119.832031 77.4375 L 120.167969 78.007812 L 120.332031 78.292969 L 120.5 78.574219 L 120.667969 78.851562 L 120.832031 79.128906 L 121 79.40625 L 121.167969 79.679688 L 121.332031 79.949219 L 121.5 80.222656 L 121.667969 80.488281 L 121.832031 80.757812 L 122 81.019531 L 122.167969 81.285156 L 122.332031 81.546875 L 122.667969 82.0625 L 122.832031 82.320312 L 123.167969 82.828125 L 123.332031 83.078125 L 123.5 83.328125 L 123.667969 83.574219 L 123.832031 83.820312 L 124.167969 84.304688 L 124.332031 84.546875 L 124.667969 85.023438 L 124.832031 85.257812 L 125 85.492188 L 125.167969 85.722656 L 125.332031 85.953125 L 125.5 86.183594 L 125.667969 86.410156 L 125.832031 86.632812 L 126 86.859375 L 126.167969 87.082031 L 126.332031 87.300781 L 126.667969 87.738281 L 126.832031 87.953125 L 127 88.167969 L 127.167969 88.378906 L 127.332031 88.589844 L 127.5 88.796875 L 127.667969 89.007812 L 127.832031 89.210938 L 128 89.417969 L 128.167969 89.621094 L 128.332031 89.820312 L 128.667969 90.21875 L 128.832031 90.414062 L 129.167969 90.804688 L 129.332031 90.996094 L 129.5 91.1875 L 129.667969 91.375 L 129.832031 91.5625 L 130 91.75 L 130.167969 91.933594 L 130.332031 92.117188 L 130.5 92.300781 L 130.667969 92.480469 L 130.832031 92.65625 L 131 92.835938 L 131.167969 93.011719 L 131.332031 93.1875 L 131.667969 93.53125 L 131.832031 93.703125 L 132.5 94.371094 L 132.667969 94.53125 L 132.832031 94.695312 L 133.167969 95.015625 L 133.332031 95.171875 L 133.5 95.332031 L 133.667969 95.484375 L 133.832031 95.640625 L 134.167969 95.945312 L 134.332031 96.097656 L 134.667969 96.394531 L 134.832031 96.539062 L 135 96.6875 L 135.167969 96.828125 L 135.332031 96.972656 L 135.667969 97.253906 L 135.832031 97.394531 L 136 97.535156 L 136.167969 97.671875 L 136.332031 97.804688 L 136.5 97.941406 L 136.667969 98.074219 L 136.832031 98.207031 L 137 98.339844 L 137.167969 98.46875 L 137.332031 98.597656 L 137.5 98.726562 L 137.667969 98.851562 L 137.832031 98.980469 L 138 99.101562 L 138.167969 99.226562 L 138.332031 99.347656 L 138.5 99.472656 L 138.667969 99.589844 L 138.832031 99.710938 L 139.167969 99.945312 L 139.332031 100.0625 L 139.5 100.179688 L 139.667969 100.292969 L 139.832031 100.40625 L 140 100.515625 L 140.167969 100.628906 L 140.332031 100.738281 L 140.667969 100.957031 L 140.832031 101.0625 L 141 101.171875 L 141.167969 101.277344 L 141.332031 101.378906 L 141.5 101.484375 L 141.667969 101.585938 L 141.832031 101.6875 L 142.167969 101.890625 L 142.332031 101.988281 L 142.667969 102.183594 L 142.832031 102.28125 L 143.167969 102.46875 L 143.332031 102.5625 L 143.667969 102.75 L 143.832031 102.839844 L 144.167969 103.019531 L 144.332031 103.109375 L 144.5 103.199219 L 144.667969 103.285156 L 144.832031 103.371094 L 145.167969 103.542969 L 145.332031 103.625 L 145.5 103.710938 L 145.667969 103.792969 L 145.832031 103.875 L 146 103.953125 L 146.167969 104.035156 L 146.332031 104.113281 L 146.5 104.195312 L 146.667969 104.273438 L 146.832031 104.347656 L 147 104.425781 L 147.167969 104.5 L 147.332031 104.578125 L 147.667969 104.726562 L 147.832031 104.800781 L 148.167969 104.941406 L 148.332031 105.015625 L 148.667969 105.15625 L 148.832031 105.222656 L 149 105.292969 L 149.167969 105.359375 L 149.332031 105.429688 L 149.667969 105.5625 L 149.832031 105.625 L 150 105.691406 L 150.167969 105.753906 L 150.332031 105.820312 L 150.667969 105.945312 L 150.832031 106.007812 L 151 106.066406 L 151.167969 106.128906 L 151.332031 106.1875 L 151.5 106.25 L 151.667969 106.308594 L 151.832031 106.367188 L 152 106.425781 L 152.167969 106.480469 L 152.332031 106.539062 L 152.5 106.59375 L 152.667969 106.652344 L 152.832031 106.707031 L 153.167969 106.816406 L 153.332031 106.867188 L 153.667969 106.976562 L 153.832031 107.027344 L 154.167969 107.128906 L 154.332031 107.179688 L 154.667969 107.28125 L 154.832031 107.332031 L 155.167969 107.425781 L 155.332031 107.476562 L 155.667969 107.570312 L 155.832031 107.617188 L 156 107.664062 "/>
<path style="fill:none;stroke-width:1.5;stroke-linecap:round;stroke-linejoin:round;stroke:rgb(0%,0%,0%);stroke-opacity:1;stroke-miterlimit:10;" d="M 5.992188 119.011719 L 156.007812 119.011719 "/>
</g>
</svg>
