<?xml version="1.0" encoding="UTF-8"?>
<svg xmlns="http://www.w3.org/2000/svg" xmlns:xlink="http://www.w3.org/1999/xlink" width="162pt" height="121pt" viewBox="0 0 162 121" version="1.1">
<g id="surface1266">
<path style="fill:none;stroke-width:2.25;stroke-linecap:round;stroke-linejoin:round;stroke:rgb(52.941176%,80.784314%,92.156863%);stroke-opacity:1;stroke-miterlimit:10;" d="M 6 112.359375 L 13.941406 112.359375 L 15.707031 112.351562 L 16.589844 112.339844 L 17.46875 112.3125 L 18.351562 112.269531 L 19.234375 112.1875 L 20.117188 112.058594 L 21 111.859375 L 21.882812 111.570312 L 22.765625 111.164062 L 23.648438 110.617188 L 24.53125 109.90625 L 25.410156 109.003906 L 26.292969 107.890625 L 27.175781 106.546875 L 28.058594 104.960938 L 28.941406 103.121094 L 29.824219 101.019531 L 30.707031 98.664062 L 31.589844 96.050781 L 32.46875 93.199219 L 33.351562 90.117188 L 34.234375 86.828125 L 35.117188 83.351562 L 36 79.707031 L 36.882812 75.929688 L 37.765625 72.042969 L 38.648438 68.078125 L 39.53125 64.0625 L 40.410156 60.023438 L 41.292969 55.992188 L 42.175781 51.996094 L 43.058594 48.058594 L 43.941406 44.207031 L 44.824219 40.457031 L 45.707031 36.839844 L 46.589844 33.363281 L 47.46875 30.046875 L 48.351562 26.910156 L 49.234375 23.957031 L 50.117188 21.199219 L 51 18.644531 L 51.882812 16.300781 L 52.765625 14.167969 L 53.648438 12.25 L 54.53125 10.546875 L 55.410156 9.058594 L 56.292969 7.785156 L 57.175781 6.714844 L 58.058594 5.851562 L 58.941406 5.1875 L 59.824219 4.714844 L 60.707031 4.429688 L 61.589844 4.320312 L 62.46875 4.382812 L 63.351562 4.609375 L 64.234375 4.984375 L 65.117188 5.507812 L 66 6.167969 L 66.882812 6.957031 L 67.765625 7.863281 L 68.648438 8.882812 L 69.53125 10.003906 L 70.410156 11.21875 L 71.292969 12.515625 L 72.175781 13.894531 L 73.058594 15.34375 L 73.941406 16.851562 L 74.824219 18.417969 L 75.707031 20.035156 L 76.589844 21.695312 L 77.46875 23.386719 L 78.351562 25.113281 L 79.234375 26.863281 L 80.117188 28.636719 L 81 30.421875 L 81.882812 32.21875 L 84.53125 37.632812 L 85.410156 39.429688 L 86.292969 41.222656 L 87.175781 43.003906 L 88.058594 44.769531 L 88.941406 46.523438 L 89.824219 48.257812 L 90.707031 49.96875 L 91.589844 51.660156 L 92.46875 53.328125 L 93.351562 54.972656 L 94.234375 56.589844 L 95.117188 58.179688 L 96 59.738281 L 96.882812 61.273438 L 97.765625 62.773438 L 98.648438 64.246094 L 99.53125 65.6875 L 100.410156 67.097656 L 101.292969 68.476562 L 102.175781 69.824219 L 103.058594 71.140625 L 103.941406 72.425781 L 104.824219 73.679688 L 105.707031 74.902344 L 106.589844 76.09375 L 107.46875 77.253906 L 108.351562 78.382812 L 109.234375 79.480469 L 110.117188 80.546875 L 111 81.589844 L 111.882812 82.597656 L 112.765625 83.578125 L 113.648438 84.53125 L 114.53125 85.457031 L 115.410156 86.355469 L 116.292969 87.226562 L 117.175781 88.074219 L 118.058594 88.894531 L 118.941406 89.6875 L 119.824219 90.457031 L 120.707031 91.203125 L 121.589844 91.925781 L 122.46875 92.628906 L 123.351562 93.304688 L 124.234375 93.960938 L 125.117188 94.597656 L 126 95.210938 L 126.882812 95.808594 L 127.765625 96.382812 L 128.648438 96.9375 L 129.53125 97.476562 L 130.410156 97.996094 L 131.292969 98.5 L 132.175781 98.988281 L 133.058594 99.457031 L 133.941406 99.910156 L 134.824219 100.347656 L 135.707031 100.773438 L 136.589844 101.183594 L 137.46875 101.578125 L 138.351562 101.957031 L 139.234375 102.328125 L 140.117188 102.683594 L 141 103.027344 L 141.882812 103.359375 L 142.765625 103.679688 L 143.648438 103.988281 L 144.53125 104.285156 L 145.410156 104.574219 L 146.292969 104.851562 L 147.175781 105.117188 L 148.058594 105.375 L 148.941406 105.625 L 149.824219 105.867188 L 150.707031 106.097656 L 151.589844 106.320312 L 152.46875 106.539062 L 153.351562 106.746094 L 154.234375 106.945312 L 155.117188 107.140625 L 156 107.328125 "/>
<path style="fill:none;stroke-width:1.5;stroke-linecap:round;stroke-linejoin:round;stroke:rgb(0%,0%,0%);stroke-opacity:1;stroke-miterlimit:10;" d="M 5.992188 119.011719 L 156.007812 119.011719 "/>
</g>
</svg>
