<?xml version="1.0" encoding="UTF-8"?>
<svg xmlns="http://www.w3.org/2000/svg" xmlns:xlink="http://www.w3.org/1999/xlink" width="162pt" height="121pt" viewBox="0 0 162 121" version="1.1">
<g id="surface1271">
<path style="fill:none;stroke-width:2.25;stroke-linecap:round;stroke-linejoin:round;stroke:rgb(52.941176%,80.784314%,92.156863%);stroke-opacity:1;stroke-miterlimit:10;" d="M 6 47.917969 L 6.375 47.597656 L 6.9375 47.128906 L 7.3125 46.824219 L 7.5 46.675781 L 7.6875 46.523438 L 7.875 46.378906 L 8.0625 46.230469 L 8.625 45.796875 L 9 45.515625 L 9.5625 45.105469 L 9.75 44.972656 L 9.9375 44.835938 L 10.125 44.707031 L 10.3125 44.574219 L 10.6875 44.316406 L 11.4375 43.816406 L 11.8125 43.574219 L 12 43.457031 L 12.1875 43.335938 L 12.375 43.21875 L 12.5625 43.105469 L 12.75 42.988281 L 12.9375 42.875 L 13.125 42.765625 L 13.3125 42.652344 L 13.5 42.542969 L 13.6875 42.4375 L 13.875 42.328125 L 14.25 42.117188 L 14.4375 42.015625 L 14.625 41.910156 L 14.8125 41.808594 L 15 41.710938 L 15.1875 41.609375 L 15.375 41.511719 L 15.5625 41.417969 L 15.75 41.320312 L 16.3125 41.039062 L 16.875 40.769531 L 17.625 40.425781 L 18.1875 40.179688 L 18.375 40.101562 L 18.5625 40.019531 L 18.75 39.941406 L 18.9375 39.867188 L 19.125 39.789062 L 19.5 39.640625 L 19.6875 39.570312 L 19.875 39.496094 L 20.25 39.355469 L 21.1875 39.023438 L 21.75 38.835938 L 22.6875 38.542969 L 23.25 38.378906 L 23.4375 38.328125 L 23.625 38.273438 L 23.8125 38.222656 L 24 38.175781 L 24.1875 38.125 L 24.9375 37.9375 L 25.6875 37.765625 L 25.875 37.726562 L 26.0625 37.683594 L 26.25 37.644531 L 26.4375 37.609375 L 26.625 37.570312 L 27.375 37.429688 L 27.5625 37.398438 L 27.75 37.363281 L 27.9375 37.332031 L 28.125 37.304688 L 28.3125 37.273438 L 28.5 37.246094 L 28.6875 37.214844 L 28.875 37.191406 L 29.25 37.136719 L 30 37.042969 L 31.125 36.925781 L 31.6875 36.878906 L 31.875 36.867188 L 32.0625 36.851562 L 32.8125 36.804688 L 33 36.796875 L 33.1875 36.785156 L 33.75 36.761719 L 33.9375 36.757812 L 34.125 36.75 L 34.6875 36.738281 L 34.875 36.738281 L 35.0625 36.734375 L 36 36.734375 L 36.1875 36.738281 L 36.375 36.738281 L 36.75 36.746094 L 36.9375 36.753906 L 37.125 36.757812 L 37.3125 36.765625 L 37.5 36.769531 L 37.875 36.785156 L 38.0625 36.796875 L 38.25 36.804688 L 38.4375 36.816406 L 38.625 36.824219 L 39 36.847656 L 39.1875 36.863281 L 39.5625 36.886719 L 40.5 36.964844 L 40.6875 36.984375 L 40.875 37 L 41.625 37.078125 L 41.8125 37.101562 L 42 37.121094 L 43.125 37.261719 L 43.5 37.316406 L 43.6875 37.339844 L 44.25 37.421875 L 44.4375 37.453125 L 44.625 37.480469 L 45.9375 37.699219 L 46.3125 37.769531 L 46.5 37.800781 L 47.0625 37.90625 L 47.25 37.945312 L 47.4375 37.980469 L 47.625 38.019531 L 47.8125 38.054688 L 48.75 38.25 L 48.9375 38.292969 L 49.125 38.332031 L 49.5 38.417969 L 49.6875 38.457031 L 50.0625 38.542969 L 50.25 38.589844 L 50.625 38.675781 L 50.8125 38.722656 L 51 38.765625 L 52.125 39.046875 L 52.3125 39.097656 L 52.5 39.144531 L 52.875 39.246094 L 53.0625 39.292969 L 53.625 39.445312 L 53.8125 39.5 L 54.1875 39.601562 L 54.375 39.65625 L 54.5625 39.707031 L 56.0625 40.144531 L 56.25 40.203125 L 56.4375 40.257812 L 56.8125 40.375 L 57 40.429688 L 57.75 40.664062 L 57.9375 40.726562 L 58.3125 40.84375 L 58.5 40.90625 L 58.6875 40.964844 L 59.25 41.152344 L 59.4375 41.210938 L 59.8125 41.335938 L 60 41.402344 L 60.5625 41.589844 L 60.75 41.65625 L 60.9375 41.71875 L 61.3125 41.851562 L 61.5 41.914062 L 62.625 42.3125 L 62.8125 42.382812 L 63.1875 42.515625 L 63.375 42.585938 L 63.5625 42.652344 L 63.9375 42.792969 L 64.125 42.859375 L 65.625 43.421875 L 65.8125 43.496094 L 66 43.566406 L 66.1875 43.640625 L 66.375 43.710938 L 66.5625 43.785156 L 66.75 43.855469 L 67.125 44.003906 L 67.3125 44.074219 L 68.625 44.59375 L 68.8125 44.671875 L 69.1875 44.820312 L 69.375 44.898438 L 69.5625 44.972656 L 69.75 45.050781 L 69.9375 45.125 L 70.125 45.203125 L 70.3125 45.277344 L 71.0625 45.589844 L 71.25 45.664062 L 72 45.976562 L 72.1875 46.058594 L 72.75 46.292969 L 72.9375 46.375 L 73.3125 46.53125 L 73.5 46.613281 L 73.6875 46.691406 L 73.875 46.773438 L 74.0625 46.851562 L 74.4375 47.015625 L 74.625 47.09375 L 75.1875 47.339844 L 75.375 47.417969 L 76.6875 47.992188 L 76.875 48.078125 L 77.625 48.40625 L 77.8125 48.492188 L 78.1875 48.65625 L 78.375 48.742188 L 78.5625 48.824219 L 78.75 48.910156 L 78.9375 48.992188 L 79.125 49.078125 L 79.3125 49.160156 L 79.6875 49.332031 L 79.875 49.414062 L 80.25 49.585938 L 80.4375 49.667969 L 81.1875 50.011719 L 81.375 50.09375 L 83.0625 50.867188 L 83.25 50.957031 L 84 51.300781 L 84.1875 51.390625 L 84.75 51.648438 L 84.9375 51.738281 L 85.3125 51.910156 L 85.5 52 L 85.875 52.171875 L 86.0625 52.261719 L 86.25 52.347656 L 86.4375 52.4375 L 86.625 52.523438 L 86.8125 52.613281 L 87 52.699219 L 87.1875 52.789062 L 87.375 52.875 L 87.5625 52.964844 L 87.75 53.050781 L 88.125 53.230469 L 88.3125 53.316406 L 88.6875 53.496094 L 88.875 53.582031 L 89.25 53.761719 L 89.4375 53.847656 L 89.8125 54.027344 L 90 54.113281 L 90.5625 54.382812 L 90.75 54.46875 L 91.5 54.828125 L 91.6875 54.914062 L 92.8125 55.453125 L 93 55.539062 L 95.25 56.617188 L 95.4375 56.703125 L 102.375 60.027344 L 102.5625 60.113281 L 104.4375 61.011719 L 104.625 61.097656 L 105.75 61.636719 L 105.9375 61.722656 L 106.6875 62.082031 L 106.875 62.167969 L 107.625 62.527344 L 107.8125 62.613281 L 108.1875 62.792969 L 108.375 62.878906 L 108.9375 63.148438 L 109.125 63.234375 L 109.3125 63.324219 L 109.5 63.410156 L 109.875 63.589844 L 110.0625 63.675781 L 110.4375 63.855469 L 110.625 63.941406 L 110.8125 64.03125 L 111 64.117188 L 111.1875 64.207031 L 111.375 64.292969 L 111.5625 64.382812 L 111.75 64.46875 L 111.9375 64.558594 L 112.125 64.644531 L 112.3125 64.734375 L 112.5 64.820312 L 112.6875 64.910156 L 112.875 64.996094 L 113.0625 65.085938 L 113.4375 65.257812 L 113.625 65.347656 L 113.8125 65.433594 L 114 65.523438 L 114.5625 65.78125 L 114.75 65.871094 L 115.125 66.042969 L 115.3125 66.132812 L 116.0625 66.476562 L 116.25 66.566406 L 119.625 68.113281 L 119.8125 68.195312 L 120.5625 68.539062 L 120.75 68.621094 L 121.3125 68.878906 L 121.5 68.960938 L 121.6875 69.046875 L 121.875 69.128906 L 122.25 69.300781 L 122.4375 69.382812 L 122.625 69.46875 L 122.8125 69.550781 L 123 69.636719 L 123.1875 69.71875 L 123.375 69.804688 L 123.5625 69.886719 L 123.75 69.972656 L 123.9375 70.054688 L 124.125 70.140625 L 124.5 70.304688 L 124.6875 70.390625 L 125.0625 70.554688 L 125.25 70.640625 L 126 70.96875 L 126.1875 71.054688 L 128.8125 72.203125 L 129 72.28125 L 129.75 72.609375 L 129.9375 72.6875 L 130.3125 72.851562 L 130.5 72.929688 L 130.875 73.09375 L 131.0625 73.171875 L 131.25 73.253906 L 131.4375 73.332031 L 131.625 73.414062 L 131.8125 73.492188 L 132 73.574219 L 132.1875 73.652344 L 132.375 73.734375 L 132.75 73.890625 L 132.9375 73.972656 L 133.3125 74.128906 L 133.5 74.210938 L 134.25 74.523438 L 134.4375 74.605469 L 136.5 75.464844 L 136.6875 75.539062 L 137.4375 75.851562 L 137.625 75.925781 L 138 76.082031 L 138.1875 76.15625 L 138.5625 76.3125 L 138.75 76.386719 L 138.9375 76.464844 L 139.125 76.539062 L 139.3125 76.617188 L 139.5 76.691406 L 139.6875 76.769531 L 139.875 76.84375 L 140.0625 76.921875 L 140.4375 77.070312 L 140.625 77.148438 L 141.1875 77.371094 L 141.375 77.449219 L 144.1875 78.5625 L 144.375 78.632812 L 144.9375 78.855469 L 145.125 78.925781 L 145.5 79.074219 L 145.6875 79.144531 L 145.875 79.21875 L 146.0625 79.289062 L 146.25 79.363281 L 146.4375 79.433594 L 146.625 79.507812 L 146.8125 79.578125 L 147 79.652344 L 147.1875 79.722656 L 147.375 79.796875 L 147.9375 80.007812 L 148.125 80.082031 L 148.875 80.363281 L 149.0625 80.4375 L 150.5625 81 L 150.75 81.066406 L 151.5 81.347656 L 151.6875 81.414062 L 152.0625 81.554688 L 152.25 81.621094 L 152.625 81.761719 L 152.8125 81.828125 L 153 81.898438 L 153.1875 81.964844 L 153.375 82.035156 L 153.5625 82.101562 L 153.75 82.171875 L 154.125 82.304688 L 154.3125 82.375 L 154.6875 82.507812 L 154.875 82.578125 L 155.625 82.84375 L 155.8125 82.914062 L 156 82.980469 "/>
<path style="fill:none;stroke-width:1.5;stroke-linecap:round;stroke-linejoin:round;stroke:rgb(0%,0%,0%);stroke-opacity:1;stroke-miterlimit:10;" d="M 5.992188 119.011719 L 156.007812 119.011719 "/>
</g>
</svg>
