<?xml version="1.0" encoding="UTF-8"?>
<svg xmlns="http://www.w3.org/2000/svg" xmlns:xlink="http://www.w3.org/1999/xlink" width="162pt" height="121pt" viewBox="0 0 162 121" version="1.1">
<g id="surface852">
<path style="fill:none;stroke-width:2.25;stroke-linecap:round;stroke-linejoin:round;stroke:rgb(52.941176%,80.784314%,92.156863%);stroke-opacity:1;stroke-miterlimit:10;" d="M 6 111.890625 L 6.453125 111.859375 L 6.683594 111.84375 L 6.910156 111.828125 L 7.363281 111.789062 L 7.589844 111.773438 L 7.816406 111.753906 L 8.046875 111.734375 L 8.273438 111.710938 L 8.726562 111.671875 L 8.953125 111.648438 L 9.183594 111.625 L 9.863281 111.554688 L 10.316406 111.5 L 10.546875 111.472656 L 11 111.417969 L 11.226562 111.386719 L 11.453125 111.359375 L 11.683594 111.328125 L 11.910156 111.292969 L 12.136719 111.261719 L 12.363281 111.226562 L 12.589844 111.195312 L 12.816406 111.160156 L 13.046875 111.121094 L 13.273438 111.085938 L 13.726562 111.007812 L 13.953125 110.964844 L 14.183594 110.925781 L 14.410156 110.882812 L 14.636719 110.835938 L 14.863281 110.792969 L 15.316406 110.699219 L 15.546875 110.652344 L 16 110.550781 L 16.226562 110.496094 L 16.453125 110.445312 L 16.683594 110.386719 L 16.910156 110.332031 L 17.363281 110.214844 L 17.589844 110.152344 L 17.816406 110.09375 L 18.046875 110.027344 L 18.726562 109.828125 L 18.953125 109.757812 L 19.183594 109.683594 L 19.410156 109.613281 L 19.636719 109.535156 L 19.863281 109.460938 L 20.089844 109.378906 L 20.316406 109.300781 L 20.546875 109.21875 L 21 109.046875 L 21.453125 108.867188 L 21.683594 108.773438 L 21.910156 108.679688 L 22.363281 108.484375 L 22.816406 108.28125 L 23.046875 108.175781 L 23.5 107.957031 L 23.953125 107.730469 L 24.183594 107.613281 L 24.636719 107.371094 L 24.863281 107.246094 L 25.316406 106.988281 L 25.546875 106.851562 L 25.773438 106.71875 L 26.226562 106.4375 L 26.453125 106.292969 L 26.683594 106.148438 L 27.136719 105.84375 L 27.363281 105.6875 L 27.816406 105.367188 L 28.046875 105.203125 L 28.273438 105.035156 L 28.5 104.863281 L 28.726562 104.6875 L 28.953125 104.507812 L 29.183594 104.328125 L 29.410156 104.144531 L 29.863281 103.761719 L 30.316406 103.371094 L 30.546875 103.167969 L 30.773438 102.960938 L 31.226562 102.539062 L 31.453125 102.320312 L 31.683594 102.101562 L 32.136719 101.648438 L 32.589844 101.179688 L 32.816406 100.941406 L 33.046875 100.695312 L 33.273438 100.449219 L 33.5 100.195312 L 33.953125 99.679688 L 34.183594 99.414062 L 34.410156 99.144531 L 34.636719 98.871094 L 34.863281 98.59375 L 35.089844 98.3125 L 35.316406 98.027344 L 35.546875 97.738281 L 36 97.144531 L 36.226562 96.839844 L 36.453125 96.53125 L 36.683594 96.21875 L 36.910156 95.902344 L 37.136719 95.582031 L 37.589844 94.925781 L 37.816406 94.589844 L 38.046875 94.25 L 38.273438 93.90625 L 38.726562 93.203125 L 38.953125 92.84375 L 39.183594 92.480469 L 39.636719 91.738281 L 39.863281 91.359375 L 40.089844 90.976562 L 40.316406 90.589844 L 40.546875 90.199219 L 40.773438 89.800781 L 41 89.398438 L 41.226562 88.992188 L 41.453125 88.582031 L 41.683594 88.167969 L 41.910156 87.746094 L 42.136719 87.320312 L 42.363281 86.890625 L 42.589844 86.453125 L 42.816406 86.011719 L 43.046875 85.570312 L 43.5 84.664062 L 43.953125 83.742188 L 44.183594 83.273438 L 44.636719 82.320312 L 45.089844 81.351562 L 45.316406 80.855469 L 45.546875 80.359375 L 45.773438 79.859375 L 46.226562 78.84375 L 46.453125 78.328125 L 46.683594 77.808594 L 46.910156 77.285156 L 47.363281 76.222656 L 47.589844 75.6875 L 47.816406 75.144531 L 48.046875 74.597656 L 48.273438 74.050781 L 48.5 73.496094 L 48.726562 72.9375 L 48.953125 72.375 L 49.183594 71.8125 L 49.410156 71.242188 L 49.636719 70.667969 L 50.089844 69.511719 L 50.316406 68.925781 L 50.546875 68.335938 L 50.773438 67.746094 L 51 67.152344 L 51.453125 65.949219 L 51.683594 65.34375 L 51.910156 64.738281 L 52.363281 63.511719 L 52.816406 62.277344 L 53.046875 61.652344 L 53.5 60.402344 L 53.726562 59.769531 L 53.953125 59.140625 L 54.183594 58.503906 L 54.636719 57.230469 L 54.863281 56.589844 L 55.089844 55.945312 L 55.316406 55.304688 L 55.546875 54.65625 L 55.773438 54.011719 L 56 53.363281 L 56.226562 52.710938 L 56.453125 52.0625 L 56.683594 51.410156 L 57.136719 50.105469 L 57.363281 49.449219 L 57.589844 48.796875 L 57.816406 48.140625 L 58.046875 47.484375 L 58.273438 46.832031 L 58.726562 45.519531 L 58.953125 44.867188 L 59.183594 44.210938 L 59.410156 43.558594 L 59.636719 42.902344 L 59.863281 42.25 L 60.089844 41.601562 L 60.316406 40.949219 L 60.546875 40.300781 L 60.773438 39.652344 L 61.453125 37.71875 L 61.683594 37.078125 L 61.910156 36.4375 L 62.136719 35.800781 L 62.589844 34.535156 L 62.816406 33.90625 L 63.046875 33.28125 L 63.273438 32.65625 L 63.726562 31.421875 L 63.953125 30.808594 L 64.183594 30.199219 L 64.636719 28.988281 L 64.863281 28.390625 L 65.089844 27.796875 L 65.316406 27.207031 L 65.546875 26.621094 L 66 25.464844 L 66.226562 24.894531 L 66.453125 24.328125 L 66.683594 23.769531 L 66.910156 23.210938 L 67.363281 22.117188 L 67.589844 21.578125 L 67.816406 21.046875 L 68.046875 20.519531 L 68.273438 20 L 68.5 19.488281 L 68.726562 18.980469 L 68.953125 18.476562 L 69.183594 17.984375 L 69.410156 17.496094 L 69.636719 17.015625 L 69.863281 16.542969 L 70.089844 16.078125 L 70.316406 15.617188 L 70.546875 15.167969 L 70.773438 14.726562 L 71 14.289062 L 71.226562 13.863281 L 71.453125 13.441406 L 71.683594 13.03125 L 71.910156 12.628906 L 72.136719 12.234375 L 72.363281 11.847656 L 72.589844 11.46875 L 72.816406 11.101562 L 73.046875 10.738281 L 73.273438 10.390625 L 73.5 10.046875 L 73.726562 9.714844 L 73.953125 9.390625 L 74.183594 9.074219 L 74.410156 8.769531 L 74.636719 8.472656 L 74.863281 8.1875 L 75.089844 7.914062 L 75.316406 7.644531 L 75.546875 7.386719 L 75.773438 7.140625 L 76 6.90625 L 76.226562 6.675781 L 76.453125 6.460938 L 76.683594 6.253906 L 76.910156 6.058594 L 77.136719 5.871094 L 77.363281 5.695312 L 77.589844 5.53125 L 77.816406 5.375 L 78.046875 5.230469 L 78.273438 5.097656 L 78.5 4.972656 L 78.726562 4.859375 L 78.953125 4.757812 L 79.183594 4.667969 L 79.410156 4.585938 L 79.636719 4.515625 L 79.863281 4.457031 L 80.089844 4.40625 L 80.316406 4.371094 L 80.546875 4.34375 L 80.773438 4.328125 L 81 4.320312 L 81.226562 4.328125 L 81.453125 4.34375 L 81.683594 4.371094 L 81.910156 4.40625 L 82.136719 4.457031 L 82.363281 4.515625 L 82.589844 4.585938 L 82.816406 4.667969 L 83.046875 4.757812 L 83.273438 4.859375 L 83.5 4.972656 L 83.726562 5.097656 L 83.953125 5.230469 L 84.183594 5.375 L 84.410156 5.53125 L 84.636719 5.695312 L 84.863281 5.871094 L 85.089844 6.058594 L 85.316406 6.253906 L 85.546875 6.460938 L 85.773438 6.675781 L 86 6.90625 L 86.226562 7.140625 L 86.453125 7.386719 L 86.683594 7.644531 L 86.910156 7.914062 L 87.136719 8.1875 L 87.363281 8.472656 L 87.589844 8.769531 L 87.816406 9.074219 L 88.046875 9.390625 L 88.273438 9.714844 L 88.5 10.046875 L 88.726562 10.390625 L 88.953125 10.738281 L 89.183594 11.101562 L 89.410156 11.46875 L 89.636719 11.847656 L 89.863281 12.234375 L 90.089844 12.628906 L 90.316406 13.03125 L 90.546875 13.441406 L 90.773438 13.863281 L 91 14.289062 L 91.226562 14.726562 L 91.453125 15.167969 L 91.683594 15.617188 L 91.910156 16.078125 L 92.136719 16.542969 L 92.363281 17.015625 L 92.589844 17.496094 L 92.816406 17.984375 L 93.046875 18.476562 L 93.273438 18.980469 L 93.5 19.488281 L 93.726562 20 L 93.953125 20.519531 L 94.183594 21.046875 L 94.410156 21.578125 L 94.636719 22.117188 L 95.089844 23.210938 L 95.316406 23.769531 L 95.546875 24.328125 L 95.773438 24.894531 L 96 25.464844 L 96.453125 26.621094 L 96.683594 27.207031 L 96.910156 27.796875 L 97.136719 28.390625 L 97.363281 28.988281 L 97.816406 30.199219 L 98.046875 30.808594 L 98.273438 31.421875 L 98.726562 32.65625 L 98.953125 33.28125 L 99.183594 33.90625 L 99.410156 34.535156 L 99.863281 35.800781 L 100.089844 36.4375 L 100.316406 37.078125 L 100.546875 37.71875 L 101.226562 39.652344 L 101.453125 40.300781 L 101.683594 40.949219 L 101.910156 41.601562 L 102.136719 42.25 L 102.363281 42.902344 L 102.589844 43.558594 L 102.816406 44.210938 L 103.046875 44.867188 L 103.273438 45.519531 L 103.726562 46.832031 L 103.953125 47.484375 L 104.183594 48.140625 L 104.410156 48.796875 L 104.636719 49.449219 L 104.863281 50.105469 L 105.316406 51.410156 L 105.546875 52.0625 L 105.773438 52.710938 L 106 53.363281 L 106.226562 54.011719 L 106.453125 54.65625 L 106.683594 55.304688 L 106.910156 55.945312 L 107.136719 56.589844 L 107.363281 57.230469 L 107.816406 58.503906 L 108.046875 59.140625 L 108.273438 59.769531 L 108.5 60.402344 L 108.953125 61.652344 L 109.183594 62.277344 L 109.636719 63.511719 L 110.089844 64.738281 L 110.316406 65.34375 L 110.546875 65.949219 L 111 67.152344 L 111.226562 67.746094 L 111.453125 68.335938 L 111.683594 68.925781 L 111.910156 69.511719 L 112.363281 70.667969 L 112.589844 71.242188 L 112.816406 71.8125 L 113.046875 72.375 L 113.273438 72.9375 L 113.5 73.496094 L 113.726562 74.050781 L 113.953125 74.597656 L 114.183594 75.144531 L 114.410156 75.6875 L 114.636719 76.222656 L 115.089844 77.285156 L 115.316406 77.808594 L 115.546875 78.328125 L 115.773438 78.84375 L 116.226562 79.859375 L 116.453125 80.359375 L 116.683594 80.855469 L 116.910156 81.351562 L 117.363281 82.320312 L 117.816406 83.273438 L 118.046875 83.742188 L 118.5 84.664062 L 118.953125 85.570312 L 119.183594 86.011719 L 119.410156 86.453125 L 119.636719 86.890625 L 119.863281 87.320312 L 120.089844 87.746094 L 120.316406 88.167969 L 120.546875 88.582031 L 120.773438 88.992188 L 121 89.398438 L 121.226562 89.800781 L 121.453125 90.199219 L 121.683594 90.589844 L 121.910156 90.976562 L 122.136719 91.359375 L 122.363281 91.738281 L 122.816406 92.480469 L 123.046875 92.84375 L 123.273438 93.203125 L 123.726562 93.90625 L 123.953125 94.25 L 124.183594 94.589844 L 124.410156 94.925781 L 124.863281 95.582031 L 125.089844 95.902344 L 125.316406 96.21875 L 125.546875 96.53125 L 125.773438 96.839844 L 126 97.144531 L 126.453125 97.738281 L 126.683594 98.027344 L 126.910156 98.3125 L 127.136719 98.59375 L 127.363281 98.871094 L 127.589844 99.144531 L 127.816406 99.414062 L 128.046875 99.679688 L 128.5 100.195312 L 128.726562 100.449219 L 128.953125 100.695312 L 129.183594 100.941406 L 129.410156 101.179688 L 129.863281 101.648438 L 130.316406 102.101562 L 130.546875 102.320312 L 130.773438 102.539062 L 131.226562 102.960938 L 131.453125 103.167969 L 131.683594 103.371094 L 132.136719 103.761719 L 132.589844 104.144531 L 132.816406 104.328125 L 133.046875 104.507812 L 133.273438 104.6875 L 133.5 104.863281 L 133.726562 105.035156 L 133.953125 105.203125 L 134.183594 105.367188 L 134.636719 105.6875 L 134.863281 105.84375 L 135.316406 106.148438 L 135.546875 106.292969 L 135.773438 106.4375 L 136.226562 106.71875 L 136.453125 106.851562 L 136.683594 106.988281 L 137.136719 107.246094 L 137.363281 107.371094 L 137.816406 107.613281 L 138.046875 107.730469 L 138.5 107.957031 L 138.953125 108.175781 L 139.183594 108.28125 L 139.636719 108.484375 L 140.089844 108.679688 L 140.316406 108.773438 L 140.546875 108.867188 L 141 109.046875 L 141.453125 109.21875 L 141.683594 109.300781 L 141.910156 109.378906 L 142.136719 109.460938 L 142.363281 109.535156 L 142.589844 109.613281 L 142.816406 109.683594 L 143.046875 109.757812 L 143.273438 109.828125 L 143.953125 110.027344 L 144.183594 110.09375 L 144.410156 110.152344 L 144.636719 110.214844 L 145.089844 110.332031 L 145.316406 110.386719 L 145.546875 110.445312 L 145.773438 110.496094 L 146 110.550781 L 146.453125 110.652344 L 146.683594 110.699219 L 147.136719 110.792969 L 147.363281 110.835938 L 147.589844 110.882812 L 147.816406 110.925781 L 148.046875 110.964844 L 148.273438 111.007812 L 148.726562 111.085938 L 148.953125 111.121094 L 149.183594 111.160156 L 149.410156 111.195312 L 149.636719 111.226562 L 149.863281 111.261719 L 150.089844 111.292969 L 150.316406 111.328125 L 150.546875 111.359375 L 150.773438 111.386719 L 151 111.417969 L 151.453125 111.472656 L 151.683594 111.5 L 152.136719 111.554688 L 152.816406 111.625 L 153.046875 111.648438 L 153.273438 111.671875 L 153.726562 111.710938 L 153.953125 111.734375 L 154.183594 111.753906 L 154.410156 111.773438 L 154.636719 111.789062 L 155.089844 111.828125 L 155.316406 111.84375 L 155.546875 111.859375 L 156 111.890625 "/>
<path style="fill:none;stroke-width:1.5;stroke-linecap:round;stroke-linejoin:round;stroke:rgb(0%,0%,0%);stroke-opacity:1;stroke-miterlimit:10;" d="M 5.992188 119.011719 L 156.007812 119.011719 "/>
</g>
</svg>
