<?xml version="1.0" encoding="UTF-8"?>
<svg xmlns="http://www.w3.org/2000/svg" xmlns:xlink="http://www.w3.org/1999/xlink" width="162pt" height="121pt" viewBox="0 0 162 121" version="1.1">
<g id="surface942">
<path style="fill:none;stroke-width:2.25;stroke-linecap:round;stroke-linejoin:round;stroke:rgb(52.941176%,80.784314%,92.156863%);stroke-opacity:1;stroke-miterlimit:10;" d="M 6 4.320312 L 7.667969 31.1875 L 9.332031 49.835938 L 11 63.183594 L 12.667969 72.988281 L 14.332031 80.347656 L 16 85.980469 L 17.667969 90.367188 L 19.332031 93.832031 L 21 96.605469 L 22.667969 98.855469 L 24.332031 100.691406 L 26 102.210938 L 27.667969 103.480469 L 29.332031 104.542969 L 31 105.445312 L 32.667969 106.210938 L 34.332031 106.871094 L 36 107.4375 L 37.667969 107.929688 L 39.332031 108.355469 L 41 108.730469 L 42.667969 109.0625 L 44.332031 109.351562 L 46 109.609375 L 47.667969 109.839844 L 49.332031 110.042969 L 51 110.226562 L 52.667969 110.390625 L 54.332031 110.539062 L 56 110.671875 L 57.667969 110.789062 L 59.332031 110.898438 L 61 111 L 62.667969 111.089844 L 64.332031 111.171875 L 66 111.25 L 67.667969 111.316406 L 69.332031 111.382812 L 71 111.441406 L 72.667969 111.496094 L 74.332031 111.542969 L 76 111.589844 L 77.667969 111.632812 L 79.332031 111.671875 L 81 111.710938 L 82.667969 111.742188 L 84.332031 111.773438 L 86 111.804688 L 87.667969 111.832031 L 89.332031 111.859375 L 92.667969 111.90625 L 94.332031 111.925781 L 97.667969 111.964844 L 99.332031 111.984375 L 102.667969 112.015625 L 104.332031 112.03125 L 106 112.042969 L 107.667969 112.058594 L 109.332031 112.070312 L 112.667969 112.09375 L 114.332031 112.101562 L 116 112.113281 L 117.667969 112.121094 L 119.332031 112.128906 L 121 112.140625 L 122.667969 112.148438 L 124.332031 112.15625 L 126 112.164062 L 127.667969 112.167969 L 129.332031 112.175781 L 131 112.183594 L 132.667969 112.1875 L 134.332031 112.195312 L 136 112.199219 L 137.667969 112.207031 L 139.332031 112.210938 L 142.667969 112.21875 L 144.332031 112.222656 L 146 112.226562 L 147.667969 112.234375 L 149.332031 112.238281 L 151 112.238281 L 152.667969 112.242188 L 154.332031 112.246094 L 156 112.25 "/>
<path style="fill:none;stroke-width:1.5;stroke-linecap:round;stroke-linejoin:round;stroke:rgb(0%,0%,0%);stroke-opacity:1;stroke-miterlimit:10;" d="M 5.992188 119.011719 L 156.007812 119.011719 "/>
</g>
</svg>
