<?xml version="1.0" encoding="UTF-8"?>
<svg xmlns="http://www.w3.org/2000/svg" xmlns:xlink="http://www.w3.org/1999/xlink" width="162pt" height="121pt" viewBox="0 0 162 121" version="1.1">
<g id="surface1306">
<path style="fill:none;stroke-width:2.25;stroke-linecap:round;stroke-linejoin:round;stroke:rgb(52.941176%,80.784314%,92.156863%);stroke-opacity:1;stroke-miterlimit:10;" d="M 27.214844 112.359375 L 27.429688 25.929688 L 27.644531 26.230469 L 27.855469 26.53125 L 28.070312 26.832031 L 28.285156 27.128906 L 28.5 27.429688 L 28.714844 27.726562 L 28.929688 28.019531 L 29.144531 28.316406 L 29.355469 28.609375 L 29.570312 28.902344 L 29.785156 29.191406 L 30 29.484375 L 30.429688 30.0625 L 30.644531 30.347656 L 30.855469 30.636719 L 31.285156 31.207031 L 31.5 31.488281 L 31.714844 31.773438 L 32.144531 32.335938 L 32.355469 32.613281 L 32.570312 32.890625 L 32.785156 33.171875 L 33 33.445312 L 33.214844 33.722656 L 33.644531 34.269531 L 33.855469 34.542969 L 34.070312 34.816406 L 34.929688 35.894531 L 35.144531 36.160156 L 35.355469 36.425781 L 35.785156 36.957031 L 36 37.21875 L 36.214844 37.484375 L 36.429688 37.746094 L 36.644531 38.003906 L 36.855469 38.265625 L 37.5 39.039062 L 37.714844 39.292969 L 37.929688 39.550781 L 38.144531 39.804688 L 38.355469 40.058594 L 38.570312 40.3125 L 39.429688 41.3125 L 39.644531 41.558594 L 39.855469 41.808594 L 40.285156 42.300781 L 40.5 42.542969 L 40.714844 42.789062 L 41.144531 43.273438 L 41.355469 43.515625 L 41.570312 43.757812 L 42.429688 44.710938 L 42.644531 44.945312 L 42.855469 45.179688 L 43.070312 45.417969 L 43.285156 45.648438 L 43.714844 46.117188 L 44.144531 46.578125 L 44.355469 46.808594 L 44.570312 47.035156 L 44.785156 47.265625 L 45.429688 47.945312 L 45.644531 48.167969 L 45.855469 48.394531 L 46.5 49.0625 L 46.714844 49.28125 L 46.929688 49.503906 L 47.144531 49.722656 L 47.355469 49.941406 L 47.785156 50.378906 L 48.644531 51.238281 L 48.855469 51.453125 L 49.070312 51.664062 L 49.285156 51.878906 L 49.714844 52.300781 L 49.929688 52.507812 L 50.144531 52.71875 L 50.355469 52.925781 L 51.214844 53.753906 L 51.644531 54.160156 L 51.855469 54.363281 L 52.5 54.972656 L 53.144531 55.570312 L 53.355469 55.769531 L 53.570312 55.964844 L 53.785156 56.164062 L 54.644531 56.945312 L 54.855469 57.136719 L 55.070312 57.332031 L 55.929688 58.097656 L 56.144531 58.285156 L 56.355469 58.476562 L 57 59.039062 L 57.214844 59.222656 L 57.429688 59.410156 L 57.644531 59.59375 L 57.855469 59.777344 L 58.714844 60.511719 L 59.144531 60.871094 L 59.355469 61.050781 L 59.785156 61.410156 L 60 61.585938 L 60.214844 61.765625 L 60.644531 62.117188 L 60.855469 62.292969 L 61.070312 62.46875 L 61.285156 62.640625 L 61.5 62.816406 L 62.144531 63.332031 L 62.355469 63.503906 L 62.570312 63.675781 L 62.785156 63.84375 L 63 64.015625 L 63.644531 64.519531 L 63.855469 64.6875 L 64.070312 64.855469 L 64.5 65.183594 L 64.714844 65.351562 L 65.144531 65.679688 L 65.355469 65.839844 L 65.570312 66.003906 L 65.785156 66.164062 L 66 66.328125 L 66.644531 66.808594 L 66.855469 66.964844 L 67.285156 67.285156 L 68.144531 67.910156 L 68.355469 68.066406 L 68.570312 68.21875 L 68.785156 68.375 L 69.644531 68.984375 L 69.855469 69.136719 L 70.070312 69.289062 L 70.285156 69.4375 L 70.5 69.589844 L 71.144531 70.035156 L 71.355469 70.183594 L 71.570312 70.332031 L 71.785156 70.476562 L 72 70.625 L 72.644531 71.058594 L 72.855469 71.203125 L 73.285156 71.492188 L 73.5 71.632812 L 73.714844 71.777344 L 74.144531 72.058594 L 74.355469 72.199219 L 75 72.621094 L 75.214844 72.757812 L 75.429688 72.898438 L 75.644531 73.035156 L 75.855469 73.171875 L 76.714844 73.71875 L 76.929688 73.851562 L 77.144531 73.988281 L 77.355469 74.121094 L 78.429688 74.785156 L 78.644531 74.914062 L 78.855469 75.046875 L 79.285156 75.304688 L 79.5 75.4375 L 79.714844 75.566406 L 79.929688 75.691406 L 80.144531 75.820312 L 80.355469 75.949219 L 80.570312 76.078125 L 81 76.328125 L 81.214844 76.457031 L 81.644531 76.707031 L 81.855469 76.832031 L 82.070312 76.953125 L 82.5 77.203125 L 82.929688 77.445312 L 83.144531 77.570312 L 83.355469 77.691406 L 83.785156 77.933594 L 84 78.050781 L 84.429688 78.292969 L 84.644531 78.410156 L 84.855469 78.527344 L 85.070312 78.648438 L 85.929688 79.117188 L 86.144531 79.230469 L 86.355469 79.347656 L 86.570312 79.464844 L 87 79.691406 L 87.214844 79.808594 L 87.644531 80.035156 L 87.855469 80.148438 L 88.070312 80.257812 L 88.5 80.484375 L 88.714844 80.59375 L 88.929688 80.707031 L 89.144531 80.816406 L 89.355469 80.925781 L 90.429688 81.472656 L 90.644531 81.578125 L 90.855469 81.6875 L 91.070312 81.792969 L 91.285156 81.902344 L 92.144531 82.324219 L 92.355469 82.429688 L 92.570312 82.535156 L 92.785156 82.636719 L 93 82.742188 L 93.214844 82.84375 L 93.429688 82.949219 L 93.644531 83.050781 L 93.855469 83.152344 L 94.070312 83.253906 L 94.285156 83.359375 L 94.5 83.457031 L 95.144531 83.761719 L 95.355469 83.859375 L 95.570312 83.960938 L 95.785156 84.058594 L 96 84.160156 L 96.644531 84.453125 L 96.855469 84.550781 L 97.285156 84.746094 L 97.5 84.839844 L 97.714844 84.9375 L 97.929688 85.03125 L 98.144531 85.128906 L 98.355469 85.222656 L 98.570312 85.316406 L 98.785156 85.414062 L 99.644531 85.789062 L 99.855469 85.878906 L 100.285156 86.066406 L 100.5 86.15625 L 100.714844 86.25 L 101.144531 86.429688 L 101.355469 86.519531 L 102.644531 87.058594 L 102.855469 87.144531 L 103.070312 87.234375 L 103.285156 87.320312 L 103.5 87.410156 L 103.929688 87.582031 L 104.144531 87.671875 L 104.355469 87.757812 L 104.785156 87.929688 L 105 88.011719 L 105.644531 88.269531 L 105.855469 88.351562 L 106.070312 88.4375 L 106.5 88.601562 L 106.714844 88.6875 L 107.144531 88.851562 L 107.355469 88.933594 L 107.785156 89.097656 L 108 89.175781 L 108.429688 89.339844 L 108.644531 89.417969 L 108.855469 89.5 L 109.070312 89.578125 L 109.285156 89.660156 L 109.929688 89.894531 L 110.144531 89.976562 L 110.355469 90.054688 L 110.570312 90.132812 L 110.785156 90.207031 L 111.429688 90.441406 L 111.644531 90.515625 L 111.855469 90.59375 L 112.070312 90.667969 L 112.285156 90.746094 L 112.929688 90.96875 L 113.144531 91.046875 L 113.355469 91.121094 L 113.785156 91.269531 L 114 91.339844 L 114.644531 91.5625 L 114.855469 91.632812 L 115.070312 91.707031 L 115.285156 91.777344 L 115.5 91.851562 L 116.144531 92.0625 L 116.355469 92.136719 L 117.214844 92.417969 L 117.429688 92.484375 L 117.644531 92.554688 L 117.855469 92.625 L 118.070312 92.695312 L 118.285156 92.761719 L 118.5 92.832031 L 118.714844 92.898438 L 118.929688 92.96875 L 119.144531 93.035156 L 119.355469 93.101562 L 119.570312 93.167969 L 119.785156 93.238281 L 120.644531 93.503906 L 120.855469 93.570312 L 121.070312 93.632812 L 121.5 93.765625 L 121.714844 93.828125 L 121.929688 93.894531 L 122.144531 93.957031 L 122.355469 94.023438 L 122.570312 94.085938 L 122.785156 94.152344 L 123.644531 94.402344 L 123.855469 94.46875 L 124.070312 94.53125 L 124.285156 94.589844 L 125.144531 94.839844 L 125.355469 94.898438 L 125.785156 95.023438 L 126 95.082031 L 126.214844 95.144531 L 126.644531 95.261719 L 126.855469 95.324219 L 128.144531 95.675781 L 128.355469 95.734375 L 129 95.910156 L 129.214844 95.964844 L 129.644531 96.082031 L 129.855469 96.136719 L 130.070312 96.195312 L 130.5 96.304688 L 130.714844 96.363281 L 131.144531 96.472656 L 131.355469 96.53125 L 132.644531 96.859375 L 132.855469 96.914062 L 133.070312 96.964844 L 133.714844 97.128906 L 133.929688 97.179688 L 134.144531 97.234375 L 134.355469 97.285156 L 134.570312 97.339844 L 134.785156 97.390625 L 135 97.445312 L 135.429688 97.546875 L 135.644531 97.601562 L 135.855469 97.652344 L 137.144531 97.957031 L 137.355469 98.007812 L 137.785156 98.109375 L 138 98.15625 L 138.429688 98.257812 L 138.644531 98.304688 L 138.855469 98.355469 L 139.070312 98.402344 L 139.285156 98.453125 L 139.5 98.5 L 139.714844 98.550781 L 140.144531 98.644531 L 140.355469 98.695312 L 141.644531 98.976562 L 141.855469 99.023438 L 142.714844 99.210938 L 142.929688 99.253906 L 143.144531 99.300781 L 143.355469 99.347656 L 143.570312 99.390625 L 144 99.484375 L 144.214844 99.527344 L 144.429688 99.574219 L 144.644531 99.617188 L 144.855469 99.660156 L 145.070312 99.707031 L 145.5 99.792969 L 145.714844 99.839844 L 146.144531 99.925781 L 146.355469 99.96875 L 147.644531 100.226562 L 147.855469 100.269531 L 148.070312 100.3125 L 148.285156 100.351562 L 148.929688 100.480469 L 149.144531 100.519531 L 149.355469 100.5625 L 149.570312 100.601562 L 149.785156 100.644531 L 150 100.683594 L 150.214844 100.726562 L 150.429688 100.765625 L 150.644531 100.808594 L 150.855469 100.847656 L 151.285156 100.925781 L 151.5 100.96875 L 152.144531 101.085938 L 152.355469 101.125 L 153.644531 101.359375 L 153.855469 101.398438 L 154.070312 101.4375 L 154.285156 101.472656 L 154.714844 101.550781 L 154.929688 101.585938 L 155.144531 101.625 L 155.355469 101.664062 L 155.570312 101.699219 L 155.785156 101.738281 L 156 101.773438 "/>
<path style="fill:none;stroke-width:1.5;stroke-linecap:round;stroke-linejoin:round;stroke:rgb(0%,0%,0%);stroke-opacity:1;stroke-miterlimit:10;" d="M 5.992188 119.011719 L 156.007812 119.011719 "/>
</g>
</svg>
