<?xml version="1.0" encoding="UTF-8"?>
<svg xmlns="http://www.w3.org/2000/svg" xmlns:xlink="http://www.w3.org/1999/xlink" width="162pt" height="121pt" viewBox="0 0 162 121" version="1.1">
<g id="surface872">
<path style="fill:none;stroke-width:2.25;stroke-linecap:round;stroke-linejoin:round;stroke:rgb(52.941176%,80.784314%,92.156863%);stroke-opacity:1;stroke-miterlimit:10;" d="M 6 105.605469 L 6.25 105.539062 L 7.5 105.1875 L 8.5 104.890625 L 9.75 104.5 L 10.5 104.253906 L 11.75 103.824219 L 12.25 103.644531 L 12.5 103.550781 L 12.75 103.460938 L 13 103.367188 L 13.25 103.269531 L 13.5 103.175781 L 14.25 102.882812 L 14.75 102.679688 L 15 102.574219 L 15.25 102.472656 L 15.5 102.367188 L 15.75 102.257812 L 16 102.152344 L 16.25 102.042969 L 16.5 101.929688 L 16.75 101.820312 L 17 101.707031 L 18 101.238281 L 18.5 100.996094 L 19 100.746094 L 19.25 100.617188 L 19.5 100.492188 L 19.75 100.359375 L 20 100.230469 L 20.25 100.097656 L 21 99.6875 L 21.5 99.40625 L 22.25 98.972656 L 22.5 98.824219 L 23.25 98.367188 L 23.5 98.210938 L 24.25 97.730469 L 24.75 97.402344 L 25 97.234375 L 25.5 96.890625 L 26 96.539062 L 26.5 96.179688 L 27 95.8125 L 27.25 95.625 L 27.75 95.242188 L 28.25 94.851562 L 28.5 94.648438 L 28.75 94.449219 L 29.5 93.828125 L 29.75 93.613281 L 30 93.402344 L 30.5 92.964844 L 30.75 92.742188 L 31 92.515625 L 31.5 92.054688 L 32 91.585938 L 32.25 91.347656 L 32.5 91.105469 L 32.75 90.859375 L 33.25 90.359375 L 33.5 90.105469 L 33.75 89.847656 L 34.25 89.324219 L 34.75 88.785156 L 35 88.511719 L 35.5 87.957031 L 36 87.386719 L 36.25 87.097656 L 36.5 86.804688 L 36.75 86.507812 L 37 86.207031 L 37.5 85.597656 L 38 84.972656 L 38.5 84.332031 L 39 83.675781 L 39.25 83.34375 L 39.5 83.007812 L 39.75 82.667969 L 40.25 81.972656 L 40.5 81.621094 L 40.75 81.265625 L 41 80.90625 L 41.25 80.542969 L 41.75 79.800781 L 42 79.425781 L 42.5 78.660156 L 42.75 78.273438 L 43 77.878906 L 43.5 77.082031 L 43.75 76.675781 L 44 76.265625 L 44.25 75.851562 L 44.5 75.433594 L 44.75 75.011719 L 45 74.585938 L 45.25 74.15625 L 45.75 73.28125 L 46 72.835938 L 46.25 72.386719 L 46.5 71.933594 L 46.75 71.476562 L 47 71.015625 L 47.25 70.550781 L 47.75 69.605469 L 48 69.125 L 48.25 68.640625 L 48.5 68.152344 L 48.75 67.660156 L 49 67.164062 L 49.25 66.664062 L 49.5 66.160156 L 49.75 65.648438 L 50.25 64.617188 L 50.5 64.09375 L 50.75 63.566406 L 51 63.035156 L 51.25 62.5 L 51.5 61.960938 L 51.75 61.417969 L 52 60.871094 L 52.5 59.761719 L 52.75 59.203125 L 53.25 58.070312 L 53.5 57.5 L 53.75 56.925781 L 54.25 55.761719 L 54.5 55.175781 L 54.75 54.585938 L 55.25 53.398438 L 55.75 52.195312 L 56.5 50.367188 L 57 49.132812 L 57.5 47.890625 L 57.75 47.265625 L 58.25 46.007812 L 58.75 44.742188 L 59.25 43.46875 L 60.25 40.90625 L 61.5 37.683594 L 61.75 37.035156 L 63 33.8125 L 63.25 33.171875 L 63.5 32.527344 L 63.75 31.890625 L 64 31.25 L 64.25 30.613281 L 64.75 29.347656 L 65 28.71875 L 65.5 27.46875 L 65.75 26.847656 L 66 26.230469 L 66.25 25.617188 L 66.5 25.007812 L 66.75 24.402344 L 67.25 23.207031 L 67.75 22.027344 L 68.25 20.871094 L 68.75 19.738281 L 69 19.183594 L 69.25 18.632812 L 69.5 18.089844 L 69.75 17.550781 L 70 17.023438 L 70.25 16.5 L 70.5 15.988281 L 70.75 15.480469 L 71 14.984375 L 71.25 14.496094 L 71.5 14.015625 L 71.75 13.546875 L 72 13.085938 L 72.25 12.632812 L 72.5 12.191406 L 72.75 11.757812 L 73 11.335938 L 73.25 10.925781 L 73.5 10.523438 L 73.75 10.132812 L 74 9.753906 L 74.25 9.386719 L 74.5 9.03125 L 74.75 8.6875 L 75 8.355469 L 75.25 8.03125 L 75.5 7.726562 L 75.75 7.429688 L 76 7.144531 L 76.25 6.875 L 76.5 6.617188 L 76.75 6.375 L 77 6.140625 L 77.25 5.925781 L 77.5 5.71875 L 77.75 5.527344 L 78 5.351562 L 78.25 5.1875 L 78.5 5.039062 L 78.75 4.902344 L 79 4.78125 L 79.25 4.671875 L 79.5 4.582031 L 79.75 4.5 L 80 4.4375 L 80.25 4.386719 L 80.5 4.351562 L 80.75 4.328125 L 81 4.320312 L 81.25 4.328125 L 81.5 4.351562 L 81.75 4.386719 L 82 4.4375 L 82.25 4.5 L 82.5 4.582031 L 82.75 4.671875 L 83 4.78125 L 83.25 4.902344 L 83.5 5.039062 L 83.75 5.1875 L 84 5.351562 L 84.25 5.527344 L 84.5 5.71875 L 84.75 5.925781 L 85 6.140625 L 85.25 6.375 L 85.5 6.617188 L 85.75 6.875 L 86 7.144531 L 86.25 7.429688 L 86.5 7.726562 L 86.75 8.03125 L 87 8.355469 L 87.25 8.6875 L 87.5 9.03125 L 87.75 9.386719 L 88 9.753906 L 88.25 10.132812 L 88.5 10.523438 L 88.75 10.925781 L 89 11.335938 L 89.25 11.757812 L 89.5 12.191406 L 89.75 12.632812 L 90 13.085938 L 90.25 13.546875 L 90.5 14.015625 L 90.75 14.496094 L 91 14.984375 L 91.25 15.480469 L 91.5 15.988281 L 91.75 16.5 L 92 17.023438 L 92.25 17.550781 L 92.5 18.089844 L 92.75 18.632812 L 93 19.183594 L 93.25 19.738281 L 93.75 20.871094 L 94.25 22.027344 L 94.75 23.207031 L 95.25 24.402344 L 95.5 25.007812 L 95.75 25.617188 L 96 26.230469 L 96.25 26.847656 L 96.5 27.46875 L 97 28.71875 L 97.25 29.347656 L 97.75 30.613281 L 98 31.25 L 98.25 31.890625 L 98.5 32.527344 L 98.75 33.171875 L 99 33.8125 L 100.25 37.035156 L 100.5 37.683594 L 101.75 40.90625 L 102.75 43.46875 L 103.25 44.742188 L 103.75 46.007812 L 104.25 47.265625 L 104.5 47.890625 L 105 49.132812 L 105.5 50.367188 L 106.25 52.195312 L 106.75 53.398438 L 107.25 54.585938 L 107.5 55.175781 L 107.75 55.761719 L 108.25 56.925781 L 108.5 57.5 L 108.75 58.070312 L 109.25 59.203125 L 109.5 59.761719 L 110 60.871094 L 110.25 61.417969 L 110.5 61.960938 L 110.75 62.5 L 111 63.035156 L 111.25 63.566406 L 111.5 64.09375 L 111.75 64.617188 L 112.25 65.648438 L 112.5 66.160156 L 112.75 66.664062 L 113 67.164062 L 113.25 67.660156 L 113.5 68.152344 L 113.75 68.640625 L 114 69.125 L 114.25 69.605469 L 114.75 70.550781 L 115 71.015625 L 115.25 71.476562 L 115.5 71.933594 L 115.75 72.386719 L 116 72.835938 L 116.25 73.28125 L 116.75 74.15625 L 117 74.585938 L 117.25 75.011719 L 117.5 75.433594 L 117.75 75.851562 L 118 76.265625 L 118.25 76.675781 L 118.5 77.082031 L 119 77.878906 L 119.25 78.273438 L 119.5 78.660156 L 120 79.425781 L 120.25 79.800781 L 120.75 80.542969 L 121 80.90625 L 121.25 81.265625 L 121.5 81.621094 L 121.75 81.972656 L 122.25 82.667969 L 122.5 83.007812 L 122.75 83.34375 L 123 83.675781 L 123.5 84.332031 L 124 84.972656 L 124.5 85.597656 L 125 86.207031 L 125.25 86.507812 L 125.5 86.804688 L 125.75 87.097656 L 126 87.386719 L 126.5 87.957031 L 127 88.511719 L 127.25 88.785156 L 127.75 89.324219 L 128.25 89.847656 L 128.5 90.105469 L 128.75 90.359375 L 129.25 90.859375 L 129.5 91.105469 L 129.75 91.347656 L 130 91.585938 L 130.5 92.054688 L 131 92.515625 L 131.25 92.742188 L 131.5 92.964844 L 132 93.402344 L 132.25 93.613281 L 132.5 93.828125 L 133.25 94.449219 L 133.5 94.648438 L 133.75 94.851562 L 134.25 95.242188 L 134.75 95.625 L 135 95.8125 L 135.5 96.179688 L 136 96.539062 L 136.5 96.890625 L 137 97.234375 L 137.25 97.402344 L 137.75 97.730469 L 138.5 98.210938 L 138.75 98.367188 L 139.5 98.824219 L 139.75 98.972656 L 140.5 99.40625 L 141 99.6875 L 141.75 100.097656 L 142 100.230469 L 142.25 100.359375 L 142.5 100.492188 L 142.75 100.617188 L 143 100.746094 L 143.5 100.996094 L 144 101.238281 L 145 101.707031 L 145.25 101.820312 L 145.5 101.929688 L 145.75 102.042969 L 146 102.152344 L 146.25 102.257812 L 146.5 102.367188 L 146.75 102.472656 L 147 102.574219 L 147.25 102.679688 L 147.75 102.882812 L 148.5 103.175781 L 148.75 103.269531 L 149 103.367188 L 149.25 103.460938 L 149.5 103.550781 L 149.75 103.644531 L 150.25 103.824219 L 151.5 104.253906 L 152.25 104.5 L 153.5 104.890625 L 154.5 105.1875 L 155.75 105.539062 L 156 105.605469 "/>
<path style="fill:none;stroke-width:1.5;stroke-linecap:round;stroke-linejoin:round;stroke:rgb(0%,0%,0%);stroke-opacity:1;stroke-miterlimit:10;" d="M 5.992188 119.011719 L 156.007812 119.011719 "/>
</g>
</svg>
